<?xml version="1.0" encoding="UTF-8"?>
<!DOCTYPE svg PUBLIC "-//W3C//DTD SVG 1.1//EN" "http://www.w3.org/Graphics/SVG/1.1/DTD/svg11.dtd">
<!-- Creator: CorelDRAW -->
<svg xmlns="http://www.w3.org/2000/svg" xml:space="preserve" width="32px" height="32px" version="1.1" style="shape-rendering:geometricPrecision; text-rendering:geometricPrecision; image-rendering:optimizeQuality; fill-rule:evenodd; clip-rule:evenodd"
viewBox="0 0 32 32"
 xmlns:xlink="http://www.w3.org/1999/xlink"
 xmlns:xodm="http://www.corel.com/coreldraw/odm/2003"
 xmlns:serif="http://www.serif.com/">
 <defs>
  <style type="text/css">
   <![CDATA[
    .fil0 {fill:white}
   ]]>
  </style>
 </defs>
 <g id="Layer_x0020_1">
  <metadata id="CorelCorpID_0Corel-Layer"/>
  <g id="Artboard11">
   <path class="fil0" d="M19.972 28.797l2.153 0c3.683,0 6.672,-2.989 6.672,-6.672l0 -12.25c0,-3.682 -2.989,-6.672 -6.672,-6.672l-12.25 0c-3.683,0 -6.672,2.989 -6.672,6.672l0 12.25c0,3.682 2.989,6.672 6.672,6.672l6.453 0c0.302,0 0.547,-0.245 0.547,-0.547 0,-0.302 -0.245,-0.547 -0.547,-0.547l-6.453 0c-3.079,0 -5.578,-2.499 -5.578,-5.578l0 -12.25c0,-3.079 2.499,-5.578 5.578,-5.578l12.25 0c3.079,0 5.578,2.499 5.578,5.578l0 12.25c0,3.079 -2.499,5.578 -5.578,5.578l-2.153 0c-0.302,0 -0.547,0.245 -0.547,0.547 0,0.302 0.245,0.547 0.547,0.547l0 0z"/>
   <g>
    <path class="fil0" d="M19.428 13.782l0 2.072c0,0.302 0.245,0.547 0.547,0.547l2.749 0c0,0 -0.382,2.399 -0.382,2.399l-2.367 0c-0.302,0 -0.547,0.245 -0.547,0.547l0 8.908c0,0.302 0.245,0.547 0.547,0.547 0.301,0 0.547,-0.245 0.547,-0.547l0 -8.361 2.287 0c0.269,0 0.498,-0.196 0.541,-0.461l0.555 -3.493c0.026,-0.158 -0.02,-0.32 -0.124,-0.441 -0.103,-0.122 -0.256,-0.192 -0.416,-0.192l-2.843 0 0 -1.629 -0.547 0.547 0.014 -0.025 0.522 -0.549c-0.028,-0.559 0.053,-1.008 0.474,-1.045l2.634 0c0.302,0 0.547,-0.246 0.547,-0.548l0 -3.239c0,-0.255 -0.177,-0.476 -0.425,-0.533 -2.09,-0.478 -4.465,-0.327 -6.04,0.581 -1.149,0.663 -1.901,1.708 -1.918,3.185l0 3.255 -2.541 0c-0.302,0 -0.546,0.245 -0.546,0.547l0 3.493c0,0.302 0.244,0.547 0.546,0.547l2.541 0 0 8.361c0,0.302 0.246,0.547 0.548,0.547 0.301,0 0.547,-0.245 0.547,-0.547l0 -8.908c0,-0.303 -0.245,-0.547 -0.547,-0.547l-2.541 0 0 -2.399 2.541 0c0.302,0 0.547,-0.245 0.547,-0.547l0 -3.792c0.015,-1.325 0.889,-2.142 2.075,-2.57 1.2,-0.433 2.711,-0.482 4.119,-0.227l0 2.247 -2.104 0c-0.012,0 -0.022,0 -0.033,0.001 -1.004,0.061 -1.581,0.884 -1.516,2.193 0,0.025 0.004,0.051 0.009,0.076z"/>
   </g>
  </g>
 </g>
</svg>
