<?xml version="1.0" encoding="UTF-8"?>
<!DOCTYPE svg PUBLIC "-//W3C//DTD SVG 1.1//EN" "http://www.w3.org/Graphics/SVG/1.1/DTD/svg11.dtd">
<!-- Creator: CorelDRAW -->
<svg xmlns="http://www.w3.org/2000/svg" xml:space="preserve" width="32px" height="32px" version="1.1" style="shape-rendering:geometricPrecision; text-rendering:geometricPrecision; image-rendering:optimizeQuality; fill-rule:evenodd; clip-rule:evenodd"
viewBox="0 0 32 32"
 xmlns:xlink="http://www.w3.org/1999/xlink"
 xmlns:xodm="http://www.corel.com/coreldraw/odm/2003"
 enable-background="new 0 0 64 64">
 <defs>
  <style type="text/css">
   <![CDATA[
    .fil0 {fill:white;fill-rule:nonzero}
   ]]>
  </style>
 </defs>
 <g id="Layer_x0020_1">
  <metadata id="CorelCorpID_0Corel-Layer"/>
  <g id="_2327358217056">
   <path class="fil0" d="M29.929 10.231c-0.065,-1.488 -0.306,-2.511 -0.651,-3.398 -0.356,-0.941 -0.903,-1.783 -1.619,-2.483 -0.701,-0.711 -1.549,-1.264 -2.479,-1.614 -0.891,-0.345 -1.909,-0.586 -3.397,-0.651 -1.499,-0.071 -1.975,-0.088 -5.778,-0.088 -3.802,0 -4.278,0.017 -5.771,0.082 -1.488,0.066 -2.512,0.307 -3.398,0.651 -0.941,0.356 -1.783,0.903 -2.484,1.62 -0.711,0.7 -1.263,1.548 -1.613,2.478 -0.345,0.892 -0.586,1.909 -0.652,3.397 -0.071,1.499 -0.087,1.975 -0.087,5.778 0,3.802 0.016,4.278 0.082,5.772 0.066,1.488 0.306,2.511 0.651,3.397 0.356,0.941 0.908,1.784 1.619,2.484 0.701,0.711 1.549,1.264 2.479,1.614 0.891,0.345 1.909,0.585 3.397,0.651 1.494,0.066 1.97,0.082 5.772,0.082 3.802,0 4.278,-0.016 5.772,-0.082 1.488,-0.066 2.511,-0.306 3.397,-0.651 1.883,-0.728 3.37,-2.216 4.098,-4.098 0.345,-0.892 0.585,-1.909 0.651,-3.397 0.066,-1.494 0.082,-1.97 0.082,-5.772 0,-3.803 -0.006,-4.279 -0.071,-5.772l0 0zm-2.522 11.434c-0.06,1.368 -0.29,2.107 -0.481,2.599 -0.471,1.22 -1.439,2.188 -2.66,2.659 -0.492,0.191 -1.236,0.421 -2.598,0.481 -1.477,0.066 -1.92,0.082 -5.657,0.082 -3.737,0 -4.185,-0.016 -5.657,-0.082 -1.368,-0.06 -2.106,-0.29 -2.599,-0.481 -0.607,-0.224 -1.16,-0.58 -1.608,-1.045 -0.465,-0.454 -0.821,-1.002 -1.045,-1.608 -0.192,-0.493 -0.421,-1.237 -0.481,-2.599 -0.066,-1.477 -0.082,-1.921 -0.082,-5.657 0,-3.737 0.016,-4.185 0.082,-5.657 0.06,-1.368 0.289,-2.106 0.481,-2.599 0.224,-0.607 0.58,-1.16 1.05,-1.608 0.454,-0.466 1.002,-0.821 1.609,-1.045 0.492,-0.192 1.236,-0.422 2.599,-0.482 1.477,-0.065 1.92,-0.082 5.656,-0.082 3.742,0 4.186,0.017 5.657,0.082 1.368,0.06 2.107,0.29 2.599,0.482 0.607,0.224 1.16,0.579 1.609,1.045 0.464,0.454 0.82,1.001 1.045,1.608 0.191,0.493 0.421,1.236 0.481,2.599 0.066,1.477 0.082,1.92 0.082,5.657 0,3.736 -0.016,4.174 -0.082,5.651l0 0zm0 0z"/>
   <path class="fil0" d="M16.005 8.808c-3.971,0 -7.194,3.223 -7.194,7.195 0,3.972 3.223,7.194 7.194,7.194 3.973,0 7.195,-3.222 7.195,-7.194 0,-3.972 -3.222,-7.195 -7.195,-7.195zm0 11.862c-2.576,0 -4.666,-2.09 -4.666,-4.667 0,-2.577 2.09,-4.667 4.666,-4.667 2.577,0 4.667,2.09 4.667,4.667 0,2.577 -2.09,4.667 -4.667,4.667zm0 0z"/>
   <path class="fil0" d="M25.164 8.524c0,0.928 -0.752,1.68 -1.68,1.68 -0.927,0 -1.679,-0.752 -1.679,-1.68 0,-0.928 0.752,-1.679 1.679,-1.679 0.928,0 1.68,0.751 1.68,1.679zm0 0z"/>
  </g>
 </g>
</svg>
