<?xml version="1.0" encoding="UTF-8"?>
<!DOCTYPE svg PUBLIC "-//W3C//DTD SVG 1.1//EN" "http://www.w3.org/Graphics/SVG/1.1/DTD/svg11.dtd">
<!-- Creator: CorelDRAW -->
<svg xmlns="http://www.w3.org/2000/svg" xml:space="preserve" width="32px" height="32px" version="1.1" style="shape-rendering:geometricPrecision; text-rendering:geometricPrecision; image-rendering:optimizeQuality; fill-rule:evenodd; clip-rule:evenodd"
viewBox="0 0 32 32"
 xmlns:xlink="http://www.w3.org/1999/xlink"
 xmlns:xodm="http://www.corel.com/coreldraw/odm/2003"
 enable-background="new 0 0 64 64">
 <defs>
  <style type="text/css">
   <![CDATA[
    .fil0 {fill:white;fill-rule:nonzero}
   ]]>
  </style>
 </defs>
 <g id="Layer_x0020_1">
  <metadata id="CorelCorpID_0Corel-Layer"/>
  <g id="_2327224660272">
   <g>
    <path class="fil0" d="M13.046 29.101c-1.551,0 -2.813,-1.262 -2.813,-2.813 0,-1.551 1.262,-2.813 2.813,-2.813 1.551,0 2.813,1.262 2.813,2.813 0,1.551 -1.262,2.813 -2.813,2.813zm0 -3.86c-0.577,0 -1.047,0.47 -1.047,1.047 0,0.578 0.469,1.048 1.047,1.048 0.578,0 1.047,-0.47 1.047,-1.048 0,-0.577 -0.469,-1.047 -1.047,-1.047z"/>
    <path class="fil0" d="M22.825 29.101c-1.551,0 -2.813,-1.262 -2.813,-2.813 0,-1.551 1.262,-2.813 2.813,-2.813 1.551,0 2.813,1.262 2.813,2.813 0,1.551 -1.262,2.813 -2.813,2.813zm0 -3.86c-0.577,0 -1.047,0.47 -1.047,1.047 0,0.578 0.47,1.048 1.047,1.048 0.578,0 1.048,-0.47 1.048,-1.048 0,-0.577 -0.471,-1.047 -1.048,-1.047z"/>
   </g>
   <path class="fil0" d="M24.885 21.295l-13.869 0c-1.349,0 -2.502,-0.919 -2.803,-2.234l-2.878 -12.571c-0.038,-0.166 -0.153,-0.308 -0.308,-0.379l-2.387 -1.107c-0.553,-0.256 -0.793,-0.912 -0.538,-1.465 0.256,-0.553 0.913,-0.793 1.465,-0.537l2.388 1.107c0.769,0.356 1.342,1.062 1.531,1.889l2.878 12.571c0.07,0.305 0.338,0.519 0.652,0.519l13.869 0c0.312,0 0.58,-0.212 0.651,-0.517l2.238 -9.628c0.064,-0.274 -0.052,-0.473 -0.127,-0.567 -0.075,-0.095 -0.243,-0.253 -0.523,-0.253l-16.333 0c-0.609,0 -1.103,-0.494 -1.103,-1.104 0,-0.609 0.494,-1.103 1.103,-1.103l16.333 0c0.882,0 1.702,0.396 2.251,1.087 0.549,0.691 0.749,1.58 0.549,2.439l-2.238 9.629c-0.305,1.309 -1.457,2.224 -2.801,2.224l0 0z"/>
  </g>
 </g>
</svg>
