<?xml version="1.0" encoding="UTF-8"?>
<!DOCTYPE svg PUBLIC "-//W3C//DTD SVG 1.1//EN" "http://www.w3.org/Graphics/SVG/1.1/DTD/svg11.dtd">
<!-- Creator: CorelDRAW -->
<svg xmlns="http://www.w3.org/2000/svg" xml:space="preserve" width="32px" height="32px" version="1.1" style="shape-rendering:geometricPrecision; text-rendering:geometricPrecision; image-rendering:optimizeQuality; fill-rule:evenodd; clip-rule:evenodd"
viewBox="0 0 32 32"
 xmlns:xlink="http://www.w3.org/1999/xlink"
 xmlns:xodm="http://www.corel.com/coreldraw/odm/2003"
 enable-background="new 0 0 512 512">
 <defs>
  <style type="text/css">
   <![CDATA[
    .fil0 {fill:white;fill-rule:nonzero}
   ]]>
  </style>
 </defs>
 <g id="Layer_x0020_1">
  <metadata id="CorelCorpID_0Corel-Layer"/>
  <g id="_2327357271600">
   <path class="fil0" d="M28.253 22.22c2.706,-3.796 2.292,-8.997 -1.404,-12.385 -1.688,-1.548 -3.841,-2.512 -6.166,-2.781 -0.015,-0.018 -0.03,-0.035 -0.046,-0.052 -2.023,-2.101 -4.929,-3.307 -7.974,-3.307 -5.793,0 -10.663,4.317 -10.663,9.844 0,1.938 0.602,3.796 1.745,5.4l-1.597 5.015c-0.101,0.315 -0.002,0.66 0.25,0.874 0.253,0.215 0.609,0.256 0.903,0.106l4.858 -2.47c0.998,0.43 2.055,0.712 3.151,0.84 2.113,2.222 5.035,3.36 8.025,3.36 1.554,0 3.102,-0.317 4.504,-0.918l4.858 2.47c0.118,0.06 0.245,0.089 0.371,0.089 0.554,0 0.951,-0.54 0.782,-1.07l-1.597 -5.015zm-19.763 -1.406c-0.229,-0.109 -0.497,-0.106 -0.724,0.009l-3.46 1.76 1.13 -3.548c0.083,-0.258 0.032,-0.54 -0.135,-0.754 -1.086,-1.39 -1.661,-3.03 -1.661,-4.742 0,-4.523 4.048,-8.203 9.023,-8.203 2.004,0 3.933,0.607 5.497,1.7 -5.269,0.53 -9.489,4.645 -9.489,9.784 0,1.599 0.41,3.137 1.183,4.516 -0.468,-0.139 -0.924,-0.313 -1.364,-0.522l0 0zm15.742 3.291c-0.223,-0.114 -0.491,-0.121 -0.724,-0.01 -1.279,0.607 -2.722,0.929 -4.173,0.929 -4.975,0 -9.023,-3.68 -9.023,-8.204 0,-4.523 4.048,-8.203 9.023,-8.203 4.975,0 9.023,3.68 9.023,8.203 0,1.712 -0.575,3.352 -1.661,4.742 -0.167,0.214 -0.217,0.496 -0.135,0.754l1.13 3.548 -3.46 -1.759z"/>
   <circle class="fil0" cx="15.999" cy="16.82" r="0.82"/>
   <circle class="fil0" cx="19.28" cy="16.82" r="0.82"/>
   <circle class="fil0" cx="22.561" cy="16.82" r="0.82"/>
  </g>
 </g>
</svg>
