<?xml version="1.0" encoding="UTF-8"?>
<!DOCTYPE svg PUBLIC "-//W3C//DTD SVG 1.1//EN" "http://www.w3.org/Graphics/SVG/1.1/DTD/svg11.dtd">
<!-- Creator: CorelDRAW -->
<svg xmlns="http://www.w3.org/2000/svg" xml:space="preserve" width="32px" height="32px" version="1.1" style="shape-rendering:geometricPrecision; text-rendering:geometricPrecision; image-rendering:optimizeQuality; fill-rule:evenodd; clip-rule:evenodd"
viewBox="0 0 32 32"
 xmlns:xlink="http://www.w3.org/1999/xlink"
 xmlns:xodm="http://www.corel.com/coreldraw/odm/2003"
 enable-background="new 0 0 64 64">
 <defs>
  <style type="text/css">
   <![CDATA[
    .fil0 {fill:white;fill-rule:nonzero}
   ]]>
  </style>
 </defs>
 <g id="Layer_x0020_1">
  <metadata id="CorelCorpID_0Corel-Layer"/>
  <g id="_2327366872976">
   <path class="fil0" d="M29.933 28.852l-4.941 -11.527c-0.13,-0.303 -0.428,-0.499 -0.757,-0.499l-3.138 0c1.27,-2.219 2.315,-4.675 2.315,-6.752 0,-10.7 -14.823,-10.831 -14.823,0 0,2.077 1.044,4.533 2.314,6.752l-3.138 0c-0.329,0 -0.627,0.196 -0.757,0.499l-4.941 11.527c-0.232,0.543 0.166,1.148 0.757,1.148l26.352 0c0.59,0 0.99,-0.604 0.757,-1.148zm-6.241 -10.38l2.438 5.688c-0.076,0.04 -8.011,4.161 -8.068,4.193l-1.724 0c-0.043,-0.048 0.327,0.324 -5.04,-5.042l2.981 -1.526c0.608,0.776 1.033,1.268 1.1,1.345 0.328,0.377 0.915,0.377 1.243,0 0.137,-0.159 1.816,-2.104 3.47,-4.658l3.6 0zm-7.692 -14.821c2.777,0 5.765,2.01 5.765,6.423 0,3.71 -4.159,9.232 -5.765,11.224 -1.605,-1.993 -5.764,-7.514 -5.764,-11.224 0,-4.437 2.895,-6.423 5.764,-6.423zm-7.692 14.821c3.99,0 3.536,0.001 3.6,-0.001 0.464,0.717 0.93,1.385 1.363,1.98l-7.443 3.809 2.48 -5.788zm-3.496 8.158l4.945 -2.531 4.255 4.254 -9.939 0 0.739 -1.723zm16.819 1.723l5.15 -2.675 1.146 2.675 -6.296 0zm0 0z"/>
   <path class="fil0" d="M18.471 9.415c0,-1.362 -1.109,-2.47 -2.471,-2.47 -1.362,0 -2.47,1.108 -2.47,2.47 0,1.362 1.108,2.47 2.47,2.47 1.362,0 2.471,-1.108 2.471,-2.47zm-3.294 0c0,-0.454 0.369,-0.823 0.823,-0.823 0.454,0 0.824,0.369 0.824,0.823 0,0.454 -0.37,0.823 -0.824,0.823 -0.454,0 -0.823,-0.369 -0.823,-0.823zm0 0z"/>
  </g>
 </g>
</svg>
