<?xml version="1.0" encoding="UTF-8"?>
<!DOCTYPE svg PUBLIC "-//W3C//DTD SVG 1.1//EN" "http://www.w3.org/Graphics/SVG/1.1/DTD/svg11.dtd">
<!-- Creator: CorelDRAW -->
<svg xmlns="http://www.w3.org/2000/svg" xml:space="preserve" width="32px" height="32px" version="1.1" style="shape-rendering:geometricPrecision; text-rendering:geometricPrecision; image-rendering:optimizeQuality; fill-rule:evenodd; clip-rule:evenodd"
viewBox="0 0 32 32"
 xmlns:xlink="http://www.w3.org/1999/xlink"
 xmlns:xodm="http://www.corel.com/coreldraw/odm/2003"
 enable-background="new 0 0 512 512">
 <defs>
  <style type="text/css">
   <![CDATA[
    .fil0 {fill:white;fill-rule:nonzero}
   ]]>
  </style>
 </defs>
 <g id="Layer_x0020_1">
  <metadata id="CorelCorpID_0Corel-Layer"/>
  <path class="fil0" d="M12.558 30c-2.038,0 -3.961,-0.65 -5.559,-1.881 -0.299,-0.229 -0.586,-0.48 -0.854,-0.745 -1.866,-1.844 -2.805,-4.3 -2.644,-6.916 0.123,-1.977 0.919,-3.883 2.244,-5.367 1.755,-1.964 4.174,-3.046 6.813,-3.046 0.454,0 0.911,0.033 1.362,0.1l0.7 0.104 0 6.212 -1.078 -0.356c-0.314,-0.104 -0.64,-0.156 -0.971,-0.156 -0.834,0 -1.616,0.327 -2.2,0.92 -0.582,0.59 -0.895,1.371 -0.883,2.2 0.016,1.068 0.578,2.036 1.505,2.591 0.426,0.254 0.912,0.404 1.405,0.431 0.389,0.022 0.774,-0.029 1.144,-0.151 1.263,-0.418 2.113,-1.59 2.113,-2.918l0.005 -6.442 0 -12.58 5.937 0 0.007 0.813c0.004,0.367 0.041,0.736 0.112,1.092 0.279,1.402 1.066,2.652 2.215,3.518 1.02,0.77 2.237,1.176 3.519,1.176 0.03,0 0.03,0 0.304,0.019l0.763 0.054 0 5.031 0 0.82 -0.274 0 -0.545 0c-0.004,0 -0.008,0 -0.013,0l-0.262 0c-0.002,0 -0.003,0 -0.005,0 -1.581,0 -3.062,-0.301 -4.531,-0.921 -0.437,-0.185 -0.863,-0.396 -1.274,-0.632l0.018 8.084c-0.01,2.391 -0.955,4.633 -2.661,6.32 -1.384,1.367 -3.13,2.241 -5.051,2.526 -0.448,0.066 -0.906,0.1 -1.361,0.1l0 0zm0 -16.315c-2.165,0 -4.15,0.888 -5.59,2.499 -1.08,1.211 -1.73,2.764 -1.83,4.375 -0.131,2.135 0.636,4.141 2.16,5.648 0.22,0.217 0.456,0.423 0.701,0.612 1.309,1.008 2.886,1.54 4.559,1.54 0.375,0 0.752,-0.027 1.121,-0.082 1.573,-0.233 3.004,-0.949 4.139,-2.07 1.393,-1.377 2.165,-3.207 2.173,-5.154l-0.026 -11.288 1.325 1.023c0.685,0.527 1.437,0.966 2.236,1.304 1.092,0.46 2.193,0.716 3.35,0.777l0 -2.649c-1.43,-0.108 -2.78,-0.616 -3.933,-1.486 -1.472,-1.109 -2.478,-2.71 -2.836,-4.508 -0.038,-0.193 -0.07,-0.388 -0.093,-0.585l-2.714 0 0 10.94 -0.005 6.442c0,2.036 -1.302,3.834 -3.239,4.474 -0.565,0.187 -1.153,0.264 -1.748,0.232 -0.758,-0.042 -1.504,-0.271 -2.158,-0.662 -1.418,-0.848 -2.28,-2.334 -2.304,-3.974 -0.018,-1.271 0.462,-2.47 1.355,-3.376 0.895,-0.909 2.092,-1.409 3.369,-1.409 0.137,0 0.273,0.006 0.408,0.017l0 -2.628c-0.14,-0.008 -0.28,-0.012 -0.42,-0.012l0 0z"/>
 </g>
</svg>
