<?xml version="1.0" encoding="UTF-8"?>
<!DOCTYPE svg PUBLIC "-//W3C//DTD SVG 1.1//EN" "http://www.w3.org/Graphics/SVG/1.1/DTD/svg11.dtd">
<!-- Creator: CorelDRAW -->
<svg xmlns="http://www.w3.org/2000/svg" xml:space="preserve" width="32px" height="32px" version="1.1" style="shape-rendering:geometricPrecision; text-rendering:geometricPrecision; image-rendering:optimizeQuality; fill-rule:evenodd; clip-rule:evenodd"
viewBox="0 0 32 32"
 xmlns:xlink="http://www.w3.org/1999/xlink"
 xmlns:xodm="http://www.corel.com/coreldraw/odm/2003"
 enable-background="new 0 0 64 64">
 <defs>
  <style type="text/css">
   <![CDATA[
    .fil0 {fill:white;fill-rule:nonzero}
   ]]>
  </style>
 </defs>
 <g id="Layer_x0020_1">
  <metadata id="CorelCorpID_0Corel-Layer"/>
  <path class="fil0" d="M15.999 26.117c-0.002,0 -0.005,0 -0.008,0 -0.845,-0.006 -8.314,-0.074 -10.43,-0.646 -1.479,-0.398 -2.646,-1.564 -3.045,-3.043 -0.554,-2.079 -0.518,-6.081 -0.514,-6.401 -0.004,-0.318 -0.04,-4.353 0.513,-6.449 0,-0.002 0,-0.004 0.001,-0.006 0.394,-1.462 1.588,-2.664 3.042,-3.063 0.003,-0.001 0.007,-0.002 0.011,-0.003 2.092,-0.55 9.576,-0.617 10.422,-0.623l0.016 0c0.847,0.006 8.336,0.074 10.433,0.647 1.475,0.397 2.641,1.561 3.041,3.038 0.574,2.098 0.521,6.142 0.515,6.483 0.004,0.336 0.038,4.303 -0.513,6.392 0,0.002 -0.001,0.004 -0.001,0.006 -0.399,1.479 -1.566,2.645 -3.047,3.043 -0.002,0.001 -0.004,0.002 -0.006,0.002 -2.092,0.55 -9.576,0.617 -10.422,0.623 -0.003,0 -0.006,0 -0.008,0l0 0zm-11.37 -15.978c-0.486,1.85 -0.44,5.834 -0.44,5.874l0 0.029c-0.014,1.105 0.037,4.304 0.44,5.82 0.196,0.725 0.772,1.3 1.502,1.497 1.561,0.422 7.645,0.555 9.868,0.57 2.229,-0.015 8.322,-0.144 9.871,-0.55 0.728,-0.197 1.302,-0.77 1.499,-1.496 0.404,-1.538 0.455,-4.722 0.44,-5.82 0,-0.011 0,-0.023 0,-0.034 0.02,-1.118 -0.019,-4.356 -0.438,-5.883 -0.001,-0.002 -0.001,-0.003 -0.001,-0.005 -0.197,-0.728 -0.773,-1.303 -1.503,-1.5 -1.546,-0.422 -7.639,-0.555 -9.868,-0.571 -2.228,0.016 -8.314,0.145 -9.869,0.55 -0.716,0.199 -1.305,0.794 -1.501,1.519zm23.797 12.026l0 0 0 0zm-15.215 -1.736l0 -8.859 7.656 4.43 -7.656 4.429zm0 0z"/>
 </g>
</svg>
