<?xml version="1.0" encoding="UTF-8"?>
<!DOCTYPE svg PUBLIC "-//W3C//DTD SVG 1.1//EN" "http://www.w3.org/Graphics/SVG/1.1/DTD/svg11.dtd">
<!-- Creator: CorelDRAW -->
<svg xmlns="http://www.w3.org/2000/svg" xml:space="preserve" width="32px" height="32px" version="1.1" style="shape-rendering:geometricPrecision; text-rendering:geometricPrecision; image-rendering:optimizeQuality; fill-rule:evenodd; clip-rule:evenodd"
viewBox="0 0 32 32"
 xmlns:xlink="http://www.w3.org/1999/xlink"
 xmlns:xodm="http://www.corel.com/coreldraw/odm/2003"
 enable-background="new 0 0 64 64">
 <defs>
  <style type="text/css">
   <![CDATA[
    .fil0 {fill:white;fill-rule:nonzero}
   ]]>
  </style>
 </defs>
 <g id="Layer_x0020_1">
  <metadata id="CorelCorpID_0Corel-Layer"/>
  <path class="fil0" d="M29.503 19.538c0.308,-1.146 0.467,-2.34 0.467,-3.552 0,-7.71 -6.275,-13.985 -13.985,-13.985 -7.711,0 -13.985,6.275 -13.985,13.985 0,7.711 6.274,13.985 13.985,13.985 1.212,0 2.405,-0.159 3.552,-0.466 0.149,0.279 0.429,0.475 0.755,0.494l0.056 0c0.354,0 0.69,-0.205 0.839,-0.532l2.666 -5.612 5.613 -2.666c0.345,-0.159 0.56,-0.523 0.531,-0.896 -0.018,-0.326 -0.214,-0.606 -0.494,-0.755zm-2.778 -9.146l-4.186 0c-0.317,-1.781 -0.783,-3.571 -1.398,-5.361 2.396,1.138 4.363,3.021 5.584,5.361zm-13.621 -6.162c0.923,-0.233 1.883,-0.364 2.881,-0.364 0.997,0 1.949,0.13 2.881,0.364 0.801,2.051 1.389,4.111 1.781,6.162l-9.323 0c0.382,-2.06 0.969,-4.121 1.78,-6.162l0 0zm-2.284 0.811c-0.625,1.781 -1.081,3.561 -1.398,5.351l-4.177 0c1.221,-2.34 3.179,-4.223 5.575,-5.351zm-6.955 10.945c0,-1.305 0.215,-2.554 0.596,-3.729l4.69 0c-0.289,2.489 -0.289,4.969 0,7.459l-4.69 0c-0.382,-1.175 -0.596,-2.425 -0.596,-3.73l0 0zm1.38 5.594l4.177 0c0.317,1.79 0.773,3.571 1.398,5.351 -2.396,-1.128 -4.354,-3.011 -5.575,-5.351zm5.789 -9.323l9.911 0c0.186,1.482 0.261,2.984 0.224,4.475l-4.886 -1.631c-0.335,-0.112 -0.708,-0.028 -0.96,0.223 -0.251,0.252 -0.336,0.625 -0.224,0.961l1.147 3.431 -5.212 0c-0.307,-2.489 -0.307,-4.969 0,-7.459zm4.951 15.849c-0.998,0 -1.958,-0.13 -2.881,-0.363 -0.811,-2.042 -1.399,-4.103 -1.781,-6.163l5.548 0 2.051 6.163c-0.951,0.242 -1.93,0.363 -2.937,0.363zm6.768 -5.799c-0.196,0.094 -0.354,0.252 -0.447,0.448l-1.809 3.822 -2.097 -6.293 -0.942 -2.825 9.118 3.04 -3.823 1.808zm4.988 -3.384l-4.726 -1.575c0.075,-1.697 0.009,-3.403 -0.196,-5.091l4.689 0c0.383,1.175 0.597,2.424 0.597,3.729 0,1.007 -0.121,1.986 -0.364,2.937l0 0z"/>
 </g>
</svg>
