<?xml version="1.0" encoding="UTF-8"?>
<!DOCTYPE svg PUBLIC "-//W3C//DTD SVG 1.1//EN" "http://www.w3.org/Graphics/SVG/1.1/DTD/svg11.dtd">
<!-- Creator: CorelDRAW -->
<svg xmlns="http://www.w3.org/2000/svg" xml:space="preserve" width="256px" height="256px" version="1.1" style="shape-rendering:geometricPrecision; text-rendering:geometricPrecision; image-rendering:optimizeQuality; fill-rule:evenodd; clip-rule:evenodd"
viewBox="0 0 256 256"
 xmlns:xlink="http://www.w3.org/1999/xlink"
 xmlns:xodm="http://www.corel.com/coreldraw/odm/2003">
 <defs>
  <style type="text/css">
   <![CDATA[
    .fil0 {fill:#EC6B5B;fill-rule:nonzero}
   ]]>
  </style>
 </defs>
 <g id="Layer_x0020_1">
  <metadata id="CorelCorpID_0Corel-Layer"/>
  <g id="_2334483738288">
   <g>
    <path class="fil0" d="M191.355 33.91c-6.378,-3.811 -14.888,-5.91 -23.963,-5.91 -6.161,0 -11.953,2.399 -16.31,6.756 -1.876,1.876 -3.419,4.074 -4.551,6.461l-78.388 -3.77c-0.341,-0.027 -0.678,-0.04 -1.038,-0.041 -3.652,0.001 -7.083,1.423 -9.664,4.004 -2.581,2.582 -4.003,6.014 -4.003,9.665 0,7.536 6.131,13.667 13.656,13.667 0.339,-0.002 0.679,-0.011 1.043,-0.039l78.381 -3.77c3.756,8.015 11.803,13.217 20.873,13.217 12.091,0 23.085,-3.776 29.408,-10.099 3.769,-3.769 5.761,-8.256 5.762,-12.976 0,-6.749 -3.979,-12.845 -11.206,-17.165zm-0.08 24.616c-4.891,4.891 -13.819,7.811 -23.884,7.811 -6.686,0 -12.529,-4.268 -14.539,-10.619 -0.516,-1.63 -2.028,-2.728 -3.723,-2.728 -0.063,0 -0.126,0.002 -0.189,0.005l-81.234 3.907c-0.041,0.002 -0.082,0.005 -0.122,0.008 -0.173,0.014 -0.321,0.021 -0.479,0.02 -3.228,0 -5.855,-2.627 -5.855,-5.855 0,-1.564 0.61,-3.035 1.716,-4.141 1.105,-1.106 2.576,-1.715 4.128,-1.716 0.163,0.001 0.319,0.007 0.476,0.02 0.045,0.004 0.09,0.007 0.136,0.009l81.235 3.908c1.765,0.084 3.373,-1.03 3.91,-2.717 0.734,-2.305 2.033,-4.435 3.755,-6.158 2.882,-2.881 6.712,-4.468 10.786,-4.468 7.684,0 14.771,1.707 19.955,4.804 4.773,2.854 7.402,6.568 7.402,10.458 0,2.603 -1.202,5.18 -3.474,7.452z"/>
   </g>
   <g>
    <path class="fil0" d="M184.89 75.519c-0.336,0.003 -0.679,0.012 -1.044,0.04l-78.383 3.77c-3.697,-7.864 -11.583,-13.058 -20.469,-13.209 -0.012,0 -0.023,0.001 -0.034,0.001 -0.011,0 -0.022,-0.002 -0.033,-0.002l-23.567 0c-2.158,0 -3.906,1.749 -3.906,3.906 0,2.158 1.748,3.906 3.906,3.906l19.661 0.001 0 11.348 -19.661 0c-2.158,0 -3.906,1.749 -3.906,3.907 0,2.157 1.748,3.906 3.906,3.906l19.661 0 0 11.349 -19.661 0 0 -0.001c-2.158,0 -3.906,1.749 -3.906,3.906 0,2.158 1.748,3.906 3.906,3.906l23.568 0.001c0.022,0 0.044,0 0.067,-0.001 6.009,-0.103 11.658,-2.499 15.907,-6.747 1.876,-1.876 3.419,-4.073 4.551,-6.462l78.388 3.771c0.345,0.026 0.683,0.04 1.038,0.041 3.651,-0.002 7.083,-1.423 9.663,-4.004 2.581,-2.581 4.004,-6.014 4.004,-9.665 0,-7.536 -6.132,-13.668 -13.656,-13.668zm4.128 17.808c-1.219,1.22 -2.88,1.838 -4.606,1.696 -0.044,-0.004 -0.089,-0.007 -0.133,-0.009l-81.236 -3.908c-1.768,-0.086 -3.373,1.03 -3.91,2.718 -0.734,2.305 -2.032,4.435 -3.755,6.157 -1.846,1.846 -4.093,3.163 -6.544,3.868l0 -29.326c4.819,1.385 8.736,5.086 10.298,10.021 0.535,1.69 2.144,2.809 3.912,2.723l81.234 -3.908c0.041,-0.002 0.081,-0.004 0.122,-0.008 0.173,-0.013 0.328,-0.019 0.479,-0.019 3.228,0 5.855,2.626 5.855,5.855 0,1.564 -0.61,3.034 -1.716,4.14z"/>
   </g>
   <g>
    <path class="fil0" d="M216.672 170.078l-2.761 0 -7.662 -32.766c-2.389,-10.214 -11.384,-17.347 -21.873,-17.347l-112.753 0c-10.49,0 -19.484,7.133 -21.872,17.347l-7.662 32.766 -2.761 0c-2.158,0 -3.907,1.749 -3.907,3.906 0,2.157 1.749,3.906 3.907,3.906l2.763 0 7.66 32.763c2.389,10.214 11.382,17.347 21.872,17.347l112.753 0c10.49,0 19.484,-7.133 21.873,-17.347l7.664 -32.763 2.759 0c2.157,0 3.906,-1.749 3.906,-3.906 0,-2.157 -1.749,-3.906 -3.906,-3.906zm-165.09 -6.287l118.393 0c2.157,0 3.906,-1.749 3.906,-3.906 0,-2.158 -1.749,-3.906 -3.906,-3.906l-116.566 0 3.949 -16.888c1.558,-6.661 7.424,-11.314 14.265,-11.314l112.753 0c6.841,0 12.707,4.653 14.265,11.314l7.246 30.987 -54.254 0 -47.266 0 -54.255 0 1.47 -6.287zm96.145 14.099l-0.001 4.216c0,3.73 -3.034,6.764 -6.763,6.764l-25.926 0c-3.729,0 -6.763,-3.035 -6.763,-6.764l0 -4.216 39.453 0zm50.914 30.984c-1.558,6.661 -7.424,11.314 -14.265,11.314l-112.753 0c-6.841,0 -12.707,-4.653 -14.265,-11.314l-7.244 -30.984 50.347 0 0 4.216c0,8.037 6.539,14.576 14.576,14.576l25.925 0c8.038,0 14.576,-6.539 14.576,-14.576l0 -4.216 50.351 0 -7.248 30.984z"/>
   </g>
   <g>
    <path class="fil0" d="M188.456 159.121c-0.051,-0.25 -0.124,-0.496 -0.222,-0.73 -0.098,-0.235 -0.219,-0.461 -0.359,-0.676 -0.141,-0.211 -0.305,-0.414 -0.485,-0.594 -0.18,-0.18 -0.383,-0.344 -0.594,-0.484 -0.211,-0.141 -0.441,-0.262 -0.675,-0.36 -0.235,-0.098 -0.481,-0.172 -0.731,-0.223 -0.504,-0.101 -1.023,-0.101 -1.527,0 -0.25,0.051 -0.492,0.125 -0.731,0.223 -0.234,0.098 -0.461,0.219 -0.672,0.36 -0.214,0.14 -0.414,0.304 -0.593,0.484 -0.18,0.18 -0.344,0.383 -0.489,0.594 -0.14,0.215 -0.261,0.441 -0.359,0.676 -0.098,0.234 -0.172,0.48 -0.222,0.73 -0.051,0.254 -0.075,0.508 -0.075,0.762 0,0.258 0.024,0.512 0.075,0.766 0.05,0.249 0.124,0.496 0.222,0.73 0.098,0.235 0.219,0.461 0.359,0.676 0.145,0.211 0.309,0.414 0.489,0.593 0.179,0.18 0.379,0.344 0.593,0.485 0.211,0.141 0.438,0.262 0.672,0.359 0.239,0.098 0.481,0.172 0.731,0.223 0.254,0.051 0.508,0.074 0.765,0.074 0.254,0 0.513,-0.023 0.762,-0.074 0.25,-0.051 0.496,-0.125 0.731,-0.223 0.234,-0.097 0.464,-0.218 0.675,-0.359 0.211,-0.141 0.414,-0.305 0.594,-0.485 0.18,-0.179 0.344,-0.382 0.485,-0.593 0.14,-0.215 0.261,-0.442 0.359,-0.676 0.098,-0.234 0.172,-0.48 0.222,-0.73 0.051,-0.254 0.078,-0.508 0.078,-0.766 0,-0.254 -0.027,-0.508 -0.078,-0.762z"/>
   </g>
  </g>
 </g>
</svg>
