<?xml version="1.0" encoding="UTF-8"?>
<!DOCTYPE svg PUBLIC "-//W3C//DTD SVG 1.1//EN" "http://www.w3.org/Graphics/SVG/1.1/DTD/svg11.dtd">
<!-- Creator: CorelDRAW -->
<svg xmlns="http://www.w3.org/2000/svg" xml:space="preserve" width="256px" height="256px" version="1.1" style="shape-rendering:geometricPrecision; text-rendering:geometricPrecision; image-rendering:optimizeQuality; fill-rule:evenodd; clip-rule:evenodd"
viewBox="0 0 256 256"
 xmlns:xlink="http://www.w3.org/1999/xlink"
 xmlns:xodm="http://www.corel.com/coreldraw/odm/2003"
 data-name="line">
 <defs>
  <style type="text/css">
   <![CDATA[
    .fil0 {fill:#EC6B5B;fill-rule:nonzero}
   ]]>
  </style>
 </defs>
 <g id="Layer_x0020_1">
  <metadata id="CorelCorpID_0Corel-Layer"/>
  <g id="_2334481990976">
   <path class="fil0" d="M227.682 151.765l-9.755 -43.118c-3.78,-17.001 -18.87,-29.105 -36.288,-29.105 -0.041,0 -0.087,0 -0.127,0l-6.524 -0.001 -5.385 -12.326c-0.563,-1.31 -1.852,-2.159 -3.279,-2.159 -1.973,0 -3.571,1.599 -3.571,3.571 0,0.498 0.105,0.994 0.306,1.449l4.135 9.465 -44.186 0 -15.173 -36.15 43.615 0 5.389 12.391c0.58,1.28 1.853,2.102 3.257,2.102 1.972,0 3.572,-1.599 3.572,-3.572 0,-0.472 -0.095,-0.943 -0.277,-1.379l-6.325 -14.538c-0.565,-1.303 -1.852,-2.147 -3.274,-2.147 0,0 -0.001,0 -0.001,0l-51.328 0c-1.402,0.041 -2.664,0.863 -3.269,2.129l-18.172 41.165 -6.53 0c-0.039,-0.001 -0.085,-0.001 -0.125,-0.001 -17.426,0 -32.517,12.105 -36.293,29.113l-1.786 7.93c-0.051,0.243 -0.077,0.492 -0.077,0.74 0,1.972 1.6,3.572 3.572,3.572 1.653,0 3.091,-1.134 3.475,-2.742l1.785 -7.923c3.053,-13.756 15.258,-23.545 29.351,-23.545 0.032,0 0.066,0 0.098,0 29.845,-0.022 76.924,0.016 107.02,0 0.028,0 0.069,0 0.098,0 14.089,0 26.294,9.789 29.352,23.54l9.753 43.12c0.103,0.446 0.154,0.905 0.154,1.365 0,3.411 -2.765,6.175 -6.175,6.175 -0.071,0 -0.143,-0.001 -0.212,-0.004 -1.199,-0.086 -2.413,-0.129 -3.62,-0.129 -4.02,0 -8.046,0.484 -11.949,1.44 -1.616,-9.09 -5.913,-17.51 -12.329,-24.152 -7.548,-8.301 -5.532,-21.091 -5.512,-21.219 0.028,-0.177 0.043,-0.36 0.043,-0.542 0,-1.972 -1.6,-3.572 -3.572,-3.572 -1.722,0 -3.199,1.228 -3.513,2.922 -0.115,0.66 -2.658,16.31 7.405,27.36 0.102,0.105 9.95,10.02 10.576,21.998 -2.206,1.265 -4.186,2.911 -5.841,4.841 -4.063,4.181 -9.655,6.544 -15.486,6.544 -4.046,0 -8.016,-1.142 -11.447,-3.285 -2.588,-1.576 -5.381,-2.823 -8.285,-3.688 -0.773,-1.405 -1.639,-2.796 -2.552,-4.115 -6.22,-9.384 -2.229,-21.658 -2.191,-21.779 0.124,-0.368 0.188,-0.756 0.188,-1.145 0,-1.973 -1.6,-3.572 -3.573,-3.572 -1.531,0 -2.893,0.977 -3.383,2.427 -1.07,3.417 -1.623,6.999 -1.623,10.586 0,5.736 1.399,11.398 4.071,16.469 -6.255,-0.298 -12.175,5.318 -18.38,2.209 -2.954,-1.324 -6.147,-2.079 -9.383,-2.21 7.33,-12.155 2.642,-26.437 2.432,-27.054 -0.509,-1.42 -1.855,-2.368 -3.363,-2.368 -1.973,0 -3.573,1.6 -3.573,3.572 0,0.369 0.057,0.735 0.169,1.086 0.042,0.124 4.034,12.396 -2.09,21.637 -0.95,1.365 -1.847,2.803 -2.654,4.257 -2.893,0.865 -5.676,2.105 -8.26,3.673 -3.444,2.151 -7.427,3.295 -11.488,3.295 -5.253,0 -10.332,-1.909 -14.285,-5.367 -2.014,-2.352 -4.39,-4.388 -7.024,-6.016 0.626,-11.977 10.478,-21.898 10.709,-22.134 9.929,-10.913 7.386,-26.561 7.273,-27.223 -0.315,-1.689 -1.791,-2.915 -3.511,-2.915 -1.973,0 -3.573,1.6 -3.573,3.574 0,0.184 0.014,0.367 0.042,0.55 0.023,0.126 2.095,12.844 -5.378,21.066 -6.476,6.671 -10.829,15.131 -12.47,24.289 -3.909,-0.948 -7.922,-1.439 -11.948,-1.439 -1.197,0 -2.399,0.048 -3.59,0.128 -0.078,0.001 -0.156,0.004 -0.231,0.004 -3.41,0 -6.175,-2.765 -6.175,-6.175 0,-0.461 0.052,-0.923 0.154,-1.372l4.715 -20.896c0.058,-0.257 0.088,-0.521 0.088,-0.786 0,-1.972 -1.6,-3.572 -3.572,-3.572 -1.67,0 -3.118,1.157 -3.485,2.785l-4.715 20.894c-0.212,0.955 -0.323,1.936 -0.323,2.918 0,7.369 5.977,13.346 13.345,13.346 0.203,0 0.408,-0.007 0.608,-0.015 6.603,-0.455 17.373,0.239 22.403,6.403 0.579,0.667 1.205,1.303 1.871,1.885 5.267,4.639 12.055,7.204 19.076,7.204 5.372,0 10.647,-1.504 15.209,-4.334 3.567,-2.412 7.78,-3.707 12.088,-3.707 2.722,0 5.425,0.519 7.954,1.522 2.339,1.051 4.88,1.598 7.448,1.598 2.563,0 5.101,-0.545 7.439,-1.596 5.975,-3.175 15.11,-1.236 20.071,2.195 4.634,2.813 9.956,4.309 15.379,4.309 0.065,0 0.132,0 0.197,0 6.891,0 13.54,-2.553 18.659,-7.164 3.128,-2.869 3.664,-4.326 7.361,-5.954 4.297,-1.667 8.868,-2.522 13.476,-2.522 1.16,0 2.333,0.06 3.485,0.164 0.189,0.007 0.38,0.012 0.57,0.012 7.378,0 13.361,-5.983 13.361,-13.362 0,-0.976 -0.108,-1.949 -0.318,-2.9zm-125.303 -102.912l12.881 30.688 -26.427 0.001 13.546 -30.689z"/>
   <path class="fil0" d="M64.942 186.69c-0.222,-0.043 -0.448,-0.065 -0.674,-0.065 -1.712,0 -3.185,1.216 -3.51,2.895l-3.956 20.502c-0.081,0.462 -0.434,0.83 -0.893,0.932l-7.928 1.643c-0.093,0.025 -0.189,0.037 -0.286,0.037 -0.62,0 -1.123,-0.503 -1.123,-1.123 0,-0.067 0.006,-0.135 0.017,-0.201l3.915 -30.448c0.021,-0.151 0.03,-0.303 0.03,-0.455 0,-1.972 -1.599,-3.571 -3.571,-3.571 -1.796,0 -3.313,1.334 -3.541,3.116l-3.913 30.422c-0.051,0.366 -0.077,0.738 -0.077,1.109 0,2.3 0.959,4.498 2.642,6.063 3.972,4.108 10.629,1.129 15.302,0.4 3.274,-0.694 5.815,-3.285 6.441,-6.572l3.956 -20.5c0.043,-0.224 0.065,-0.451 0.065,-0.678 0,-1.711 -1.215,-3.183 -2.895,-3.506l-0.001 0z"/>
   <path class="fil0" d="M212.584 179.913c-0.251,-1.761 -1.76,-3.069 -3.537,-3.069 -1.974,0 -3.574,1.6 -3.574,3.574 0,0.135 0.008,0.271 0.023,0.405l3.916 30.514c0.034,0.913 -0.506,1.352 -1.405,1.258l-7.894 -1.636c-0.466,-0.096 -0.826,-0.464 -0.91,-0.932l-3.918 -20.499c-0.325,-1.681 -1.797,-2.896 -3.509,-2.896 -1.972,0 -3.572,1.6 -3.572,3.572 0,0.222 0.022,0.445 0.062,0.662l3.918 20.501c0.627,3.297 3.177,5.894 6.46,6.581l7.894 1.637c0.547,0.11 1.106,0.167 1.663,0.167 4.615,0 8.356,-3.741 8.356,-8.355 0,-0.333 -0.022,-0.669 -0.061,-0.998l-3.912 -30.486z"/>
   <path class="fil0" d="M143.058 52.765l-5.117 11.193 -5.27 -4.05c-0.616,-0.451 -1.36,-0.696 -2.124,-0.696 -1.972,0 -3.571,1.599 -3.571,3.572 0,1.085 0.494,2.113 1.342,2.791l8.831 6.784c0.622,0.472 1.383,0.727 2.167,0.727 1.395,0 2.667,-0.81 3.256,-2.076l6.98 -15.277c0.201,-0.454 0.305,-0.945 0.305,-1.441 0,-1.973 -1.599,-3.571 -3.571,-3.571 -1.38,0 -2.638,0.796 -3.228,2.044z"/>
  </g>
 </g>
</svg>
