<?xml version="1.0" encoding="UTF-8"?>
<!DOCTYPE svg PUBLIC "-//W3C//DTD SVG 1.1//EN" "http://www.w3.org/Graphics/SVG/1.1/DTD/svg11.dtd">
<!-- Creator: CorelDRAW -->
<svg xmlns="http://www.w3.org/2000/svg" xml:space="preserve" width="256px" height="256px" version="1.1" style="shape-rendering:geometricPrecision; text-rendering:geometricPrecision; image-rendering:optimizeQuality; fill-rule:evenodd; clip-rule:evenodd"
viewBox="0 0 256 256"
 xmlns:xlink="http://www.w3.org/1999/xlink"
 xmlns:xodm="http://www.corel.com/coreldraw/odm/2003"
 xmlns:serif="http://www.serif.com/">
 <defs>
  <style type="text/css">
   <![CDATA[
    .fil0 {fill:#EC6B5B;fill-rule:nonzero}
   ]]>
  </style>
 </defs>
 <g id="Layer_x0020_1">
  <metadata id="CorelCorpID_0Corel-Layer"/>
  <g id="_2334485583872">
   <g>
    <path class="fil0" d="M217.62 128.357c2.287,-2.853 3.713,-6.423 3.713,-10.357 0,-1.843 -1.49,-3.333 -3.333,-3.333l-0.087 0c2.117,-2.794 3.42,-6.233 3.42,-10 0,-1.844 -1.49,-3.333 -3.333,-3.333l-0.087 0c2.117,-2.794 3.42,-6.234 3.42,-10 0,-1.844 -1.49,-3.334 -3.333,-3.334l-0.087 0c2.117,-2.793 3.42,-6.233 3.42,-10 0,-1.843 -1.49,-3.333 -3.333,-3.333 -1.843,0 -3.333,1.49 -3.333,3.333 0,5.514 -4.487,10 -10,10l-20 0c-4.347,0 -8.054,-2.786 -9.43,-6.666l29.43 0c1.843,0 3.333,-1.49 3.333,-3.334 0,-1.843 -1.49,-3.333 -3.333,-3.333l-33.333 0c-1.844,0 -3.334,1.49 -3.334,3.333 0,3.767 1.303,7.207 3.42,10l-0.086 0c-1.844,0 -3.334,1.49 -3.334,3.334 0,3.766 1.303,7.206 3.42,10l-0.086 0c-1.844,0 -3.334,1.49 -3.334,3.333 0,3.767 1.303,7.207 3.42,10l-0.086 0c-0.934,0 -1.774,0.387 -2.377,1.003 -0.353,-0.17 -0.72,-0.307 -1.097,-0.433 -1.087,-11.82 -9.06,-21.65 -19.86,-25.487l0 -1.75c0,-5.513 -4.487,-10 -10,-10 -5.513,0 -10,4.487 -10,10l0 1.75c-10.8,3.837 -18.773,13.667 -19.86,25.487 -3.943,1.34 -6.806,5.04 -6.806,9.43 0,1.173 0.239,2.286 0.613,3.333l-5.804 0c1.15,-1.97 1.857,-4.226 1.857,-6.666l0 -10c0,-1.844 -1.49,-3.334 -3.333,-3.334 -1.844,0 -3.334,1.49 -3.334,3.334l0 10c0,3.676 -2.99,6.666 -6.666,6.666l-33.333 0c-3.677,0 -6.667,-2.99 -6.667,-6.666l0 -20 53.333 0c1.843,0 3.334,-1.491 3.334,-3.334 0,-1.843 -1.491,-3.333 -3.334,-3.333l0 -3.333c0,-7.354 -5.98,-13.334 -13.333,-13.334l-6.667 0 0 -3.333c0,-5.513 -4.486,-10 -10,-10 -5.513,0 -10,4.487 -10,10l0 3.333 -6.666 0c-7.354,0 -13.334,5.98 -13.334,13.334l0 3.333c-1.843,0 -3.333,1.49 -3.333,3.333 0,1.844 1.49,3.334 3.333,3.334l0 20c0,2.497 0.733,4.81 1.93,6.81 -6.686,0.71 -11.93,6.316 -11.93,13.19 0,1.843 1.49,3.333 3.333,3.333 1.844,0 3.334,-1.49 3.334,-3.333 0,-3.677 2.99,-6.667 6.666,-6.667l173.334 0c3.676,0 6.666,2.99 6.666,6.666l0 14.994c0,2.45 -1.3,4.6 -3.47,5.74 -2.177,1.137 -4.68,0.987 -6.703,-0.413 -3.783,-2.607 -8.794,-2.894 -13.08,-0.754l-10.347 5.17c-6.1,3.054 -13.38,3.047 -19.473,0l-3.42 -1.71c-8.54,-4.267 -18.587,-3.977 -26.867,0.767 -6.3,3.603 -14.34,3.633 -21.493,0.053l-1.64 -0.82c-8.54,-4.267 -18.583,-3.977 -26.867,0.767 -6.306,3.606 -14.343,3.63 -21.496,0.053l-8.56 -4.28c-4.284,-2.14 -9.3,-1.857 -13.08,0.754 -2.02,1.4 -4.527,1.55 -6.704,0.413 -2.166,-1.14 -3.466,-3.29 -3.466,-5.74l0 -1.66c0,-1.843 -1.49,-3.334 -3.334,-3.334 -1.843,0 -3.333,1.491 -3.333,3.334l0 14.993c0,4.857 2.663,9.3 6.943,11.594 3.04,1.63 6.514,1.946 9.724,1.053l0 42.36c0,1.843 1.49,3.333 3.333,3.333l13.334 0c1.843,0 3.333,-1.49 3.333,-3.333l0 -39.62c8.49,4.17 18.437,3.87 26.653,-0.82 6.337,-3.617 14.014,-3.834 20.54,-0.57l2.63 1.316c4.02,2.011 8.377,3.007 12.72,3.007 4.874,0 9.737,-1.253 14.107,-3.753 3.963,-2.267 8.447,-3.22 13.01,-2.757 1.874,0.173 3.467,-1.15 3.653,-2.983 0.187,-1.83 -1.15,-3.467 -2.983,-3.654 -5.913,-0.596 -11.806,0.644 -16.99,3.604 -6.333,3.616 -14.017,3.833 -20.54,0.57l-2.63 -1.317c-8.53,-4.26 -18.56,-3.977 -26.83,0.747 -6.337,3.616 -14.014,3.833 -20.54,0.57l-9.553 -4.777c-4.221,-2.107 -9.261,-1.787 -13.174,0.82 -2.023,1.35 -4.513,1.46 -6.653,0.323 -2.14,-1.146 -3.42,-3.28 -3.42,-5.713l0 -1.923c0.126,0.073 0.243,0.16 0.373,0.23 4.34,2.286 9.547,1.96 13.587,-0.827 1.776,-1.227 4.196,-1.333 6.31,-0.277l8.56 4.28c9.16,4.577 19.553,4.497 27.793,-0.233 6.344,-3.637 14.03,-3.86 20.567,-0.587l1.64 0.82c9.16,4.577 19.553,4.497 27.793,-0.233 6.343,-3.637 14.04,-3.853 20.57,-0.587l3.42 1.71c3.98,1.994 8.35,2.987 12.717,2.987 4.366,0 8.737,-0.997 12.716,-2.987l10.347 -5.17c2.123,-1.056 4.534,-0.953 6.31,0.277 4.04,2.787 9.247,3.114 13.587,0.827 0.13,-0.07 0.247,-0.157 0.373,-0.23l0 1.923c0,2.43 -1.28,4.567 -3.423,5.717 -2.143,1.14 -4.633,1.033 -6.65,-0.324 -3.92,-2.61 -8.96,-2.93 -13.177,-0.82l-10.346 5.171c-6.1,3.053 -13.374,3.053 -19.474,0 -1.646,-0.817 -3.646,-0.157 -4.473,1.489 -0.824,1.647 -0.157,3.651 1.49,4.474 3.98,1.993 8.35,2.986 12.717,2.986 4.366,0 8.736,-0.996 12.716,-2.986l0.624 -0.307 0 39.607c0,1.843 1.49,3.333 3.333,3.333l13.333 0c1.843,0 3.333,-1.49 3.333,-3.333l0 -42.36c3.211,0.897 6.687,0.577 9.724,-1.054 4.28,-2.293 6.943,-6.736 6.943,-11.593l0 -28.327c0,-6.333 -4.447,-11.626 -10.38,-12.976l0 0zm-152.953 -53.69c0,-1.84 1.493,-3.334 3.333,-3.334 1.84,0 3.333,1.494 3.333,3.334l0 3.333 -6.666 0 0 -3.333zm-20 16.667c0,-3.677 2.99,-6.667 6.666,-6.667l33.334 0c3.677,0 6.666,2.99 6.666,6.667l0 3.333 -46.666 0 0 -3.333zm130.57 3.333l38.86 0c-1.377,3.88 -5.084,6.667 -9.43,6.667l-20 0c-4.347,0 -8.054,-2.787 -9.43,-6.667l0 0zm0 13.333l38.86 0c-1.377,3.88 -5.084,6.667 -9.43,6.667l-20 0c-4.347,0 -8.054,-2.787 -9.43,-6.667l0 0zm-40.57 -20c0,-1.84 1.493,-3.333 3.333,-3.333 1.84,0 3.333,1.493 3.333,3.333l0 0.197c-1.096,-0.123 -2.206,-0.197 -3.333,-0.197 -1.127,0 -2.237,0.074 -3.333,0.197l0 -0.197zm3.333 6.667c11.73,0 21.44,8.713 23.067,20l-46.134 0c1.627,-11.287 11.337,-20 23.067,-20zm-26.667 33.333c-1.84,0 -3.333,-1.493 -3.333,-3.333 0,-1.84 1.493,-3.334 3.333,-3.334l53.334 0.001c1.84,0 3.333,1.493 3.333,3.333 0,1.84 -1.493,3.333 -3.333,3.333l-53.334 0zm73.334 0c-4.347,0 -8.054,-2.786 -9.43,-6.666l38.86 0c-1.377,3.88 -5.084,6.666 -9.43,6.666l-20 0zm-129.73 52.197l3.063 1.53 0 39.607 -6.666 0 0 -41.75c1.22,-0.134 2.473,0.046 3.603,0.613zm143.063 41.137l0 -39.607 3.063 -1.53c1.137,-0.567 2.387,-0.747 3.604,-0.613l0 41.75 -6.667 0z"/>
    <path class="fil0" d="M80.644 55.357l1.666 1.667c0.65,0.649 1.503,0.976 2.357,0.976 0.853,0 1.706,-0.327 2.356,-0.976 1.304,-1.304 1.304,-3.411 0,-4.714l-1.666 -1.666c-0.707,-0.707 -1.094,-1.644 -1.094,-2.644 0,-1 0.387,-1.936 1.094,-2.643 4.056,-4.057 4.056,-10.657 0,-14.714l-1.667 -1.666c-1.303,-1.303 -3.41,-1.303 -4.713,0 -1.304,1.303 -1.304,3.41 0,4.713l1.667 1.667c0.706,0.707 1.093,1.643 1.093,2.643 0,1 -0.387,1.937 -1.093,2.643 -4.057,4.057 -4.057,10.657 0,14.714z"/>
    <path class="fil0" d="M67.31 55.357l1.667 1.667c0.65,0.649 1.503,0.976 2.356,0.976 0.854,0 1.707,-0.327 2.357,-0.976 1.303,-1.304 1.303,-3.411 0,-4.714l-1.667 -1.666c-0.706,-0.707 -1.093,-1.644 -1.093,-2.644 0,-1 0.387,-1.936 1.093,-2.643 4.057,-4.057 4.057,-10.657 0,-14.714l-1.666 -1.666c-1.304,-1.303 -3.41,-1.303 -4.714,0 -1.303,1.303 -1.303,3.41 0,4.713l1.667 1.667c0.707,0.707 1.093,1.643 1.093,2.643 0,1 -0.386,1.937 -1.093,2.643 -4.057,4.057 -4.057,10.657 0,14.714z"/>
    <path class="fil0" d="M53.977 55.357l1.666 1.667c0.651,0.649 1.504,0.976 2.357,0.976 0.854,0 1.707,-0.327 2.357,-0.976 1.303,-1.304 1.303,-3.411 0,-4.714l-1.667 -1.666c-0.706,-0.707 -1.093,-1.644 -1.093,-2.644 0,-1 0.386,-1.936 1.093,-2.643 4.057,-4.057 4.057,-10.657 0,-14.714l-1.666 -1.666c-1.304,-1.303 -3.411,-1.303 -4.714,0 -1.303,1.303 -1.303,3.41 0,4.713l1.667 1.667c0.707,0.707 1.093,1.643 1.093,2.643 0,1 -0.386,1.937 -1.093,2.643 -4.057,4.057 -4.057,10.657 0,14.714z"/>
    <path class="fil0" d="M147.31 68.69l1.667 1.667c0.65,0.65 1.503,0.976 2.356,0.976 0.854,0 1.707,-0.326 2.357,-0.976 1.304,-1.304 1.304,-3.41 0,-4.714l-1.666 -1.666c-0.707,-0.707 -1.094,-1.644 -1.094,-2.643 0,-1 0.387,-1.937 1.094,-2.644 4.056,-4.057 4.056,-10.657 0,-14.713l-1.667 -1.667c-1.303,-1.303 -3.41,-1.303 -4.714,0 -1.303,1.303 -1.303,3.41 0,4.713l1.667 1.667c0.707,0.707 1.094,1.643 1.094,2.644 0,1 -0.387,1.936 -1.094,2.643 -4.056,4.056 -4.056,10.656 0,14.713z"/>
    <path class="fil0" d="M133.977 68.69l1.666 1.667c0.65,0.65 1.504,0.976 2.357,0.976 0.854,0 1.707,-0.326 2.357,-0.976 1.303,-1.304 1.303,-3.41 0,-4.714l-1.667 -1.666c-0.706,-0.707 -1.093,-1.644 -1.093,-2.643 0,-1 0.386,-1.937 1.093,-2.644 4.057,-4.057 4.057,-10.657 0,-14.713l-1.666 -1.667c-1.304,-1.303 -3.411,-1.303 -4.714,0 -1.303,1.303 -1.303,3.41 0,4.713l1.667 1.667c0.706,0.707 1.093,1.643 1.093,2.644 0,1 -0.386,1.936 -1.093,2.643 -4.057,4.056 -4.057,10.656 0,14.713z"/>
    <path class="fil0" d="M120.644 68.69l1.666 1.667c0.65,0.65 1.503,0.976 2.357,0.976 0.853,0 1.706,-0.326 2.356,-0.976 1.304,-1.304 1.304,-3.41 0,-4.714l-1.666 -1.666c-0.707,-0.707 -1.094,-1.644 -1.094,-2.643 0,-1 0.387,-1.937 1.094,-2.644 4.056,-4.057 4.056,-10.657 0,-14.713l-1.667 -1.667c-1.303,-1.303 -3.41,-1.303 -4.713,0 -1.304,1.303 -1.304,3.41 0,4.713l1.667 1.667c0.706,0.707 1.093,1.643 1.093,2.644 0,1 -0.387,1.936 -1.093,2.643 -4.057,4.056 -4.057,10.656 0,14.713z"/>
   </g>
  </g>
 </g>
</svg>
