<?xml version="1.0" encoding="UTF-8"?>
<!DOCTYPE svg PUBLIC "-//W3C//DTD SVG 1.1//EN" "http://www.w3.org/Graphics/SVG/1.1/DTD/svg11.dtd">
<!-- Creator: CorelDRAW -->
<svg xmlns="http://www.w3.org/2000/svg" xml:space="preserve" width="525px" height="200px" version="1.1" style="shape-rendering:geometricPrecision; text-rendering:geometricPrecision; image-rendering:optimizeQuality; fill-rule:evenodd; clip-rule:evenodd"
viewBox="0 0 525 200"
 xmlns:xlink="http://www.w3.org/1999/xlink"
 xmlns:xodm="http://www.corel.com/coreldraw/odm/2003">
 <defs>
  <style type="text/css">
   <![CDATA[
    .fil1 {fill:#FEFEFE}
    .fil0 {fill:#F9AD66}
    .fil2 {fill:#EC6B5B;fill-rule:nonzero}
   ]]>
  </style>
 </defs>
 <g id="Layer_x0020_1">
  <metadata id="CorelCorpID_0Corel-Layer"/>
  <path class="fil0" d="M84.71 171.89c-3.31,2.62 -6.78,5.03 -10.41,7.17 -5.59,3.29 -11.56,6.12 -17.81,7.92 -5.44,1.57 -11.16,2.35 -16.82,1.74 -5.61,-0.6 -10.67,-2.79 -14.47,-7.02 -3.83,-4.09 -5.75,-9.17 -6.05,-14.76 -0.32,-5.72 0.89,-11.43 2.84,-16.78 2.23,-6.14 5.41,-11.94 9.04,-17.36 4.16,-6.19 9.16,-11.78 14.66,-16.82 5.36,-5.19 11.25,-9.86 17.69,-13.65 5.63,-3.32 11.65,-6.14 17.95,-7.92 5.48,-1.56 11.25,-2.33 16.92,-1.61 5.56,0.71 10.53,2.97 14.39,7.06l0.07 0.07 0.07 0.07c3.64,4.1 5.47,9.13 5.86,14.57 0.25,3.45 -0.07,6.9 -0.79,10.28l15.33 -21.74 0.03 -0.05c2.34,-3.18 5.31,-5.7 8.8,-7.55 3.19,-1.69 6.7,-2.88 10.34,-2.88l6.8 0c4.55,0 8.6,2.14 10.06,6.52 5.32,-2.92 11.06,-5.09 17.09,-5.98 4.37,-0.64 9.02,-0.71 13.23,0.78 5.31,1.87 8.32,6.28 8.61,11.85 0.28,5.45 -2.37,11.54 -4.84,16.28 -4.08,7.84 -10.05,15.64 -15.58,22.52l-0.06 0.07 -0.06 0.07c-0.23,0.27 -0.46,0.54 -0.69,0.81 0.39,-0.35 0.78,-0.7 1.17,-1.06 4.53,-4.13 8.92,-8.42 13.18,-12.83 3.84,-3.98 7.61,-8.1 11.07,-12.42l0.1 -0.13 0.23 -0.25c3.07,-4.48 6.15,-8.95 9.23,-13.42 4.74,-6.87 9.52,-13.72 14.33,-20.55 4.72,-6.71 9.45,-13.42 14.16,-20.14 4.13,-5.88 8.28,-11.75 12.44,-17.6 3.05,-4.28 6.1,-8.55 9.16,-12.8 1.46,-2.03 2.91,-4.08 4.41,-6.08l0.06 -0.08 0.07 -0.08c2.41,-3.02 5.35,-5.49 8.72,-7.38 3.22,-1.79 6.77,-3.06 10.49,-3.06l6.79 0c4.93,0 9.21,2.6 10.22,7.64 0.79,3.96 -0.86,7.7 -3.22,10.78 -1.93,2.87 -4.08,5.73 -6.09,8.53 -4.64,6.49 -9.29,12.97 -13.94,19.45 -6.08,8.47 -12.11,16.98 -18.13,25.5 -6.25,8.85 -12.49,17.71 -18.73,26.58 -5.25,7.46 -10.48,14.93 -15.66,22.44 -2.13,3.08 -4.46,6.36 -6.53,9.64 1.46,-1.22 2.88,-2.47 4.26,-3.74 4.53,-4.13 8.92,-8.42 13.18,-12.83 3.84,-3.98 7.61,-8.1 11.07,-12.42l0.08 -0.11c2.16,-3.04 4.34,-6.06 6.56,-9.06 1.76,-2.39 3.6,-4.95 5.53,-7.22 2.31,-3.08 5.22,-5.53 8.63,-7.34 3.2,-1.69 6.71,-2.88 10.35,-2.88l6.8 0c4.76,0 8.98,2.35 10.24,7.15 1.09,4.14 -0.66,8.06 -3.19,11.27 -1.48,1.88 -2.97,3.75 -4.45,5.62 -2.65,3.36 -5.17,6.84 -7.62,10.35 -3,4.3 -6.01,8.6 -9.03,12.9 -1.86,2.65 -3.68,5.33 -5.45,8.04 1.33,-1.14 2.64,-2.3 3.92,-3.47 4.53,-4.13 8.91,-8.42 13.18,-12.83 3.92,-4.05 7.77,-8.21 11.4,-12.54 0.25,-0.3 0.5,-0.6 0.76,-0.91l10.65 -15.1 0.03 -0.05c2.34,-3.18 5.31,-5.7 8.8,-7.55 3.19,-1.69 6.7,-2.88 10.35,-2.88l6.79 0c4.55,0 8.61,2.14 10.06,6.52 5.33,-2.92 11.06,-5.09 17.09,-5.98 4.37,-0.64 9.02,-0.71 13.23,0.78 5.31,1.87 8.33,6.28 8.61,11.85 0.28,5.45 -2.37,11.54 -4.83,16.28 -4.09,7.84 -10.06,15.64 -15.59,22.52l-0.06 0.07 -0.06 0.07c-0.23,0.27 -0.46,0.54 -0.69,0.81 0.39,-0.35 0.79,-0.7 1.18,-1.06 3.1,-2.83 6.13,-5.73 9.1,-8.7 3.92,-5.36 8.36,-10.36 13.08,-15.02 6.61,-6.52 13.87,-12.65 21.78,-17.54 6.2,-3.84 12.98,-7.22 20.06,-9.09 5.83,-1.54 11.99,-2.2 17.95,-1.03 3.27,0.64 6.4,1.71 9.26,3.3 1.11,-0.7 2.28,-1.31 3.5,-1.84 2.75,-1.18 5.68,-1.94 8.69,-1.94l6.8 0c4.76,0 8.98,2.35 10.24,7.15 1.09,4.14 -0.66,8.06 -3.19,11.27 -1.48,1.88 -2.97,3.75 -4.45,5.62 -2.65,3.36 -5.17,6.84 -7.62,10.35 -3,4.3 -6.01,8.6 -9.03,12.9 -1.81,2.58 -3.58,5.2 -5.26,7.87 1.27,-1.08 2.51,-2.19 3.73,-3.3 4.53,-4.13 8.91,-8.42 13.17,-12.83 3.91,-4.04 7.79,-8.18 11.38,-12.51 2.06,-2.48 4.58,-5.16 7.53,-6.55 3.64,-1.73 7.78,-1.69 10.77,1.29 2.34,2.35 3.04,5.52 2.72,8.72 -0.3,2.96 -1.55,5.71 -3.19,8.16l-0.08 0.12c-1.76,2.52 -3.72,4.97 -5.64,7.37 -2.96,3.69 -6.12,7.25 -9.36,10.7 -3.83,4.09 -7.8,8.06 -11.83,11.95 -4.24,4.08 -8.64,7.98 -13.23,11.65 -4.2,3.36 -8.57,6.55 -13.12,9.43 -4.13,2.63 -8.74,4.84 -13.54,5.72 -4.34,0.86 -9.07,1.01 -13.28,-0.75 -3.83,-1.61 -6.83,-4.33 -8.58,-8.11 -0.67,-1.43 -1.13,-2.92 -1.43,-4.45 -2.22,1.74 -4.52,3.4 -6.88,4.95 -3.64,2.4 -7.47,4.5 -11.49,6.2 -3.97,1.67 -8.19,2.74 -12.52,2.74 -6.05,0 -11.46,-2.16 -15.25,-6.96 -1.29,-1.63 -2.25,-3.4 -2.94,-5.25 -2.8,2.1 -5.69,4.09 -8.66,5.94 -4.06,2.53 -8.62,4.75 -13.35,5.68 -5.32,1.04 -10.92,1.01 -15.82,-1.57 -4.91,-2.59 -7.86,-6.98 -8.71,-12.44 -0.88,-5.62 0.69,-11.65 2.7,-16.86 2.38,-6.17 6.1,-12.13 10.1,-17.52 -4.23,3.9 -8.32,7.96 -12.27,12.13 -4.75,5.01 -9.34,10.3 -13.34,15.93 -0.46,0.82 -1.01,1.57 -1.67,2.21l-5.7 8.11 -0.13 0.16c-2.42,3.02 -5.35,5.49 -8.73,7.38 -3.21,1.79 -6.76,3.06 -10.48,3.06l-6.79 0c-3.92,0 -7.42,-1.64 -9.2,-4.84 -3.46,1.96 -7.2,3.53 -11.09,4.25 -5.01,1.03 -10.46,1.15 -15.04,-1.43 -4.19,-2.36 -6.89,-6.13 -7.99,-10.79 -0.04,-0.15 -0.07,-0.31 -0.1,-0.46 -3.23,2.46 -6.55,4.8 -9.97,6.97 -4.12,2.61 -8.7,4.82 -13.52,5.71 -5.02,1.03 -10.46,1.14 -15.08,-1.39 -4.28,-2.33 -7.06,-6.1 -8.18,-10.83 -0.02,-0.07 -0.03,-0.14 -0.05,-0.2 -3.13,2.39 -6.37,4.66 -9.72,6.74 -4.07,2.53 -8.62,4.75 -13.35,5.68 -5.32,1.04 -10.92,1.01 -15.82,-1.57 -4.91,-2.59 -7.87,-6.98 -8.72,-12.44 -0.87,-5.62 0.7,-11.65 2.71,-16.86 2.38,-6.17 6.1,-12.13 10.1,-17.52 -4.23,3.9 -8.32,7.96 -12.28,12.13 -4.74,5.01 -9.33,10.3 -13.33,15.93 -0.47,0.82 -1.02,1.57 -1.68,2.21l-5.69 8.11 -0.13 0.16c-2.42,3.02 -5.35,5.49 -8.73,7.38 -3.21,1.79 -6.76,3.06 -10.48,3.06l-6.79 0c-4.94,0 -9.21,-2.6 -10.22,-7.64 -0.63,-3.13 0.27,-6.12 1.84,-8.76zm204.89 -101c0,-5.32 1.93,-10.06 5.75,-13.76 3.77,-3.66 8.48,-5.49 13.73,-5.49 5.25,0 9.96,1.84 13.68,5.56 3.72,3.72 5.57,8.43 5.57,13.69 0,5.24 -1.84,9.95 -5.49,13.72 -3.71,3.83 -8.44,5.76 -13.76,5.76 -5.31,0 -10.05,-1.93 -13.8,-5.68 -3.76,-3.76 -5.68,-8.49 -5.68,-13.8zm116.25 84.18c1.43,-0.71 2.96,-1.66 3.67,-2.11l0.1 -0.07 0.12 -0.07c3.61,-2.14 7.02,-5.03 10.07,-7.91 4.05,-3.81 7.97,-7.78 11.75,-11.86 3.78,-4.08 7.46,-8.24 11.02,-12.51 1.19,-1.43 2.37,-2.86 3.55,-4.3 -3.3,0.92 -6.45,2.36 -9.39,4.12 -4.2,2.5 -8.11,5.44 -11.73,8.72 -3.41,3.08 -6.71,6.38 -9.62,9.94l-0.09 0.1 -0.09 0.1c-2.92,3.3 -5.63,6.97 -7.51,10.97 -0.61,1.28 -1.41,3.14 -1.85,4.88zm-315.29 -39.84c-0.21,0.02 -0.43,0.06 -0.55,0.08 -1.93,0.38 -4,1.52 -5.63,2.58 -2.94,1.9 -5.68,4.19 -8.24,6.56 -3.11,2.88 -5.93,6.09 -8.49,9.46 -2.52,3.32 -4.85,6.84 -6.78,10.54 -1.53,2.93 -2.92,6.05 -3.85,9.23 -0.54,1.82 -1.01,4.03 -0.82,5.94 0.01,0.11 0.03,0.28 0.05,0.45 0.22,-0.02 0.43,-0.06 0.56,-0.08 1.97,-0.38 4.05,-1.48 5.73,-2.52 2.87,-1.78 5.52,-4.01 7.96,-6.33 3.07,-2.92 5.87,-6.14 8.43,-9.52 2.56,-3.36 4.93,-6.9 6.95,-10.62 1.58,-2.92 3,-6.03 3.91,-9.22 0.53,-1.86 1.02,-4.15 0.83,-6.1 -0.01,-0.11 -0.03,-0.28 -0.06,-0.45z"/>
  <path class="fil1" d="M78.11 165.3c-3.31,2.61 -6.78,5.02 -10.41,7.16 -5.59,3.3 -11.56,6.12 -17.81,7.92 -5.44,1.57 -11.16,2.35 -16.82,1.74 -5.61,-0.6 -10.67,-2.79 -14.46,-7.02 -3.84,-4.09 -5.76,-9.17 -6.06,-14.76 -0.31,-5.72 0.9,-11.43 2.84,-16.78 2.24,-6.14 5.41,-11.94 9.04,-17.36 4.16,-6.19 9.17,-11.78 14.66,-16.82 5.36,-5.19 11.25,-9.85 17.69,-13.65 5.64,-3.31 11.65,-6.13 17.95,-7.92 5.48,-1.55 11.25,-2.33 16.93,-1.6 5.55,0.7 10.52,2.96 14.38,7.05l0.07 0.07 0.07 0.07c3.64,4.1 5.47,9.13 5.86,14.57 0.25,3.45 -0.07,6.9 -0.79,10.28l15.33 -21.74 0.03 -0.05c2.34,-3.18 5.31,-5.7 8.8,-7.55 3.19,-1.69 6.7,-2.87 10.35,-2.87l6.79 0c4.55,0 8.61,2.13 10.06,6.51 5.33,-2.91 11.06,-5.08 17.09,-5.97 4.37,-0.65 9.02,-0.72 13.23,0.77 5.31,1.87 8.33,6.28 8.61,11.86 0.28,5.44 -2.37,11.53 -4.84,16.27 -4.08,7.84 -10.05,15.64 -15.58,22.52l-0.06 0.07 -0.06 0.07c-0.23,0.27 -0.46,0.54 -0.69,0.82 0.39,-0.36 0.79,-0.71 1.18,-1.07 4.53,-4.13 8.91,-8.42 13.17,-12.83 3.85,-3.98 7.61,-8.1 11.07,-12.42l0.1 -0.13 0.23 -0.25c3.07,-4.48 6.15,-8.95 9.23,-13.42 4.74,-6.87 9.52,-13.72 14.33,-20.55 4.73,-6.71 9.45,-13.42 14.17,-20.14 4.13,-5.88 8.27,-11.75 12.44,-17.6 3.04,-4.28 6.09,-8.55 9.16,-12.8 1.46,-2.03 2.91,-4.08 4.4,-6.08l0.07 -0.08 0.06 -0.08c2.42,-3.02 5.35,-5.49 8.73,-7.38 3.21,-1.79 6.76,-3.06 10.48,-3.06l6.79 0c4.94,0 9.21,2.6 10.22,7.65 0.79,3.95 -0.86,7.69 -3.22,10.77 -1.93,2.87 -4.08,5.73 -6.09,8.54 -4.64,6.48 -9.29,12.96 -13.94,19.44 -6.07,8.48 -12.11,16.98 -18.12,25.5 -6.26,8.85 -12.5,17.71 -18.74,26.58 -5.25,7.46 -10.48,14.93 -15.66,22.44 -2.13,3.08 -4.46,6.36 -6.53,9.64 1.46,-1.22 2.88,-2.47 4.27,-3.74 4.52,-4.13 8.91,-8.42 13.17,-12.83 3.84,-3.98 7.61,-8.1 11.07,-12.42l0.09 -0.11c2.15,-3.04 4.33,-6.06 6.55,-9.06 1.77,-2.39 3.6,-4.95 5.53,-7.22 2.31,-3.08 5.22,-5.53 8.64,-7.34 3.19,-1.69 6.7,-2.87 10.34,-2.87l6.8 0c4.76,0 8.98,2.34 10.24,7.14 1.1,4.15 -0.66,8.07 -3.19,11.27 -1.48,1.88 -2.97,3.75 -4.45,5.63 -2.65,3.35 -5.17,6.84 -7.62,10.34 -3,4.31 -6.01,8.61 -9.02,12.9 -1.86,2.65 -3.69,5.33 -5.46,8.04 1.34,-1.14 2.64,-2.3 3.92,-3.47 4.53,-4.13 8.92,-8.42 13.18,-12.83 3.92,-4.05 7.77,-8.21 11.4,-12.53 0.25,-0.31 0.5,-0.61 0.76,-0.91l10.65 -15.11 0.04 -0.05c2.33,-3.18 5.3,-5.7 8.79,-7.55 3.19,-1.69 6.7,-2.87 10.35,-2.87l6.79 0c4.55,0 8.61,2.13 10.06,6.51 5.33,-2.91 11.06,-5.08 17.09,-5.97 4.37,-0.65 9.02,-0.72 13.24,0.77 5.31,1.87 8.32,6.28 8.6,11.86 0.28,5.44 -2.37,11.53 -4.83,16.27 -4.09,7.84 -10.06,15.64 -15.59,22.52l-0.06 0.07 -0.06 0.07c-0.23,0.27 -0.46,0.54 -0.69,0.82 0.4,-0.36 0.79,-0.71 1.18,-1.07 3.1,-2.83 6.13,-5.73 9.1,-8.69 3.92,-5.36 8.36,-10.36 13.08,-15.02 6.61,-6.53 13.87,-12.66 21.78,-17.55 6.2,-3.84 12.99,-7.22 20.06,-9.09 5.83,-1.53 12,-2.2 17.95,-1.03 3.27,0.64 6.4,1.71 9.26,3.3 1.11,-0.7 2.28,-1.31 3.5,-1.84 2.76,-1.17 5.69,-1.93 8.69,-1.93l6.8 0c4.76,0 8.98,2.34 10.24,7.14 1.09,4.15 -0.66,8.07 -3.19,11.27 -1.48,1.88 -2.97,3.75 -4.45,5.63 -2.65,3.35 -5.17,6.84 -7.62,10.34 -3,4.31 -6.01,8.61 -9.03,12.9 -1.81,2.58 -3.57,5.2 -5.26,7.87 1.27,-1.08 2.51,-2.19 3.73,-3.3 4.53,-4.13 8.92,-8.42 13.18,-12.83 3.9,-4.04 7.78,-8.18 11.37,-12.51 2.06,-2.48 4.58,-5.15 7.53,-6.55 3.65,-1.73 7.78,-1.69 10.77,1.3 2.34,2.34 3.04,5.51 2.72,8.72 -0.3,2.96 -1.55,5.7 -3.18,8.15l-0.09 0.13c-1.76,2.51 -3.72,4.96 -5.64,7.36 -2.96,3.7 -6.12,7.25 -9.36,10.7 -3.83,4.09 -7.79,8.06 -11.83,11.95 -4.23,4.08 -8.64,7.98 -13.22,11.65 -4.21,3.36 -8.57,6.55 -13.12,9.44 -4.14,2.62 -8.75,4.84 -13.55,5.71 -4.34,0.87 -9.06,1.02 -13.27,-0.75 -3.83,-1.61 -6.84,-4.33 -8.59,-8.11 -0.67,-1.43 -1.13,-2.92 -1.43,-4.45 -2.22,1.75 -4.52,3.4 -6.87,4.96 -3.64,2.39 -7.48,4.49 -11.49,6.19 -3.98,1.67 -8.2,2.74 -12.53,2.74 -6.05,0 -11.46,-2.16 -15.25,-6.96 -1.29,-1.63 -2.25,-3.39 -2.93,-5.25 -2.81,2.1 -5.69,4.09 -8.67,5.95 -4.06,2.53 -8.62,4.75 -13.34,5.67 -5.32,1.04 -10.92,1.01 -15.82,-1.57 -4.92,-2.59 -7.87,-6.97 -8.72,-12.44 -0.88,-5.61 0.69,-11.64 2.7,-16.86 2.39,-6.17 6.1,-12.13 10.1,-17.52 -4.23,3.9 -8.31,7.96 -12.27,12.14 -4.75,5 -9.34,10.29 -13.34,15.92 -0.46,0.82 -1.01,1.57 -1.67,2.21l-5.7 8.11 -0.13 0.16c-2.41,3.02 -5.35,5.49 -8.73,7.38 -3.21,1.79 -6.76,3.06 -10.48,3.06l-6.79 0c-3.92,0 -7.42,-1.64 -9.2,-4.84 -3.46,1.96 -7.2,3.53 -11.09,4.25 -5.01,1.03 -10.46,1.15 -15.04,-1.43 -4.19,-2.35 -6.88,-6.13 -7.99,-10.78 -0.03,-0.16 -0.07,-0.31 -0.1,-0.47 -3.23,2.46 -6.55,4.8 -9.97,6.98 -4.12,2.61 -8.7,4.81 -13.52,5.7 -5.02,1.03 -10.46,1.14 -15.08,-1.38 -4.27,-2.34 -7.06,-6.11 -8.18,-10.83 -0.02,-0.07 -0.03,-0.14 -0.05,-0.21 -3.13,2.4 -6.37,4.66 -9.72,6.75 -4.06,2.53 -8.62,4.75 -13.35,5.67 -5.32,1.04 -10.92,1.01 -15.82,-1.57 -4.91,-2.59 -7.87,-6.97 -8.72,-12.44 -0.87,-5.61 0.7,-11.64 2.71,-16.86 2.38,-6.17 6.1,-12.13 10.1,-17.52 -4.23,3.9 -8.32,7.96 -12.27,12.14 -4.75,5 -9.34,10.29 -13.34,15.92 -0.46,0.82 -1.01,1.57 -1.67,2.21l-5.7 8.11 -0.13 0.16c-2.42,3.02 -5.35,5.49 -8.73,7.38 -3.21,1.79 -6.76,3.06 -10.48,3.06l-6.79 0c-4.94,0 -9.21,-2.6 -10.22,-7.64 -0.63,-3.13 0.27,-6.12 1.84,-8.75zm204.89 -101.01c0,-5.32 1.93,-10.06 5.75,-13.76 3.77,-3.65 8.49,-5.49 13.73,-5.49 5.25,0 9.97,1.84 13.68,5.56 3.73,3.72 5.57,8.44 5.57,13.69 0,5.24 -1.84,9.95 -5.49,13.72 -3.71,3.83 -8.44,5.76 -13.76,5.76 -5.31,0 -10.04,-1.92 -13.8,-5.68 -3.76,-3.76 -5.68,-8.49 -5.68,-13.8zm116.25 84.18c1.43,-0.71 2.96,-1.66 3.67,-2.11l0.11 -0.07 0.11 -0.07c3.61,-2.13 7.03,-5.03 10.07,-7.9 4.06,-3.82 7.97,-7.79 11.76,-11.87 3.77,-4.07 7.45,-8.24 11.01,-12.5 1.19,-1.43 2.38,-2.87 3.55,-4.31 -3.3,0.92 -6.44,2.36 -9.39,4.12 -4.19,2.5 -8.1,5.44 -11.72,8.72 -3.42,3.08 -6.72,6.38 -9.63,9.94l-0.09 0.11 -0.09 0.1c-2.92,3.29 -5.63,6.97 -7.51,10.96 -0.61,1.29 -1.4,3.14 -1.85,4.88zm-315.29 -39.83c-0.21,0.02 -0.43,0.05 -0.55,0.08 -1.93,0.37 -4,1.51 -5.63,2.57 -2.93,1.9 -5.68,4.19 -8.24,6.56 -3.11,2.89 -5.92,6.09 -8.49,9.47 -2.52,3.32 -4.85,6.83 -6.78,10.53 -1.53,2.93 -2.92,6.05 -3.85,9.23 -0.53,1.82 -1.01,4.04 -0.82,5.94 0.01,0.11 0.03,0.28 0.06,0.45 0.21,-0.02 0.43,-0.05 0.55,-0.08 1.97,-0.38 4.05,-1.47 5.74,-2.52 2.86,-1.78 5.52,-4.01 7.96,-6.33 3.07,-2.92 5.86,-6.14 8.42,-9.51 2.56,-3.37 4.93,-6.91 6.95,-10.63 1.58,-2.91 3,-6.02 3.91,-9.21 0.53,-1.87 1.02,-4.16 0.83,-6.11 -0.01,-0.11 -0.03,-0.27 -0.06,-0.44z"/>
  <path class="fil2" d="M403.68 128.24c-3.75,4.22 -6.6,8.4 -8.55,12.54 -1.95,4.13 -2.89,7.57 -2.81,10.3 0.08,2.74 1.25,4.34 3.52,4.81 2.26,0.46 5.81,-0.86 10.65,-3.99 3.44,-2.03 7.19,-4.96 11.25,-8.78 4.06,-3.83 8.08,-7.89 12.06,-12.18 3.99,-4.3 7.73,-8.55 11.25,-12.77 3.51,-4.22 6.36,-7.73 8.55,-10.54l2.58 -3.28c-3.6,-2.03 -7.62,-2.58 -12.07,-1.64 -4.45,0.93 -8.9,2.73 -13.35,5.38 -4.45,2.66 -8.71,5.82 -12.77,9.49 -4.06,3.67 -7.5,7.23 -10.31,10.66zm-11.24 -9.37c7.18,-7.03 14.05,-12.57 20.61,-16.63 6.56,-4.06 12.65,-6.83 18.28,-8.32 5.62,-1.48 10.62,-1.79 14.99,-0.93 4.37,0.85 7.96,2.53 10.78,5.03 1.71,-1.72 3.67,-3.04 5.85,-3.98 2.19,-0.94 4.22,-1.41 6.09,-1.41l6.8 0c2.18,0 3.47,0.75 3.86,2.23 0.39,1.48 -0.27,3.32 -1.99,5.5 -0.62,0.79 -2.11,2.66 -4.45,5.63 -2.34,2.96 -4.96,6.52 -7.85,10.66 -2.89,4.13 -5.89,8.43 -9.02,12.88 -3.12,4.45 -5.78,8.55 -7.96,12.3 -2.97,4.69 -4.65,8.08 -5.04,10.19 -0.39,2.11 0.04,3.32 1.29,3.63 1.56,0.47 4.18,-0.55 7.85,-3.04 3.67,-2.5 7.73,-5.78 12.18,-9.84 4.45,-4.06 8.94,-8.44 13.47,-13.12 4.53,-4.69 8.43,-8.98 11.71,-12.89 2.03,-2.5 3.79,-4.1 5.27,-4.8 1.49,-0.7 2.58,-0.7 3.28,0 0.71,0.7 0.98,1.84 0.82,3.4 -0.15,1.56 -0.86,3.28 -2.1,5.15 -1.1,1.56 -2.89,3.91 -5.39,7.03 -2.5,3.12 -5.51,6.56 -9.02,10.31 -3.52,3.75 -7.38,7.65 -11.6,11.71 -4.21,4.06 -8.47,7.81 -12.77,11.25 -4.29,3.43 -8.47,6.44 -12.53,9.01 -4.06,2.58 -7.81,4.18 -11.24,4.81 -3.91,0.78 -7.07,0.66 -9.49,-0.35 -2.42,-1.02 -4.14,-2.62 -5.15,-4.81 -1.02,-2.18 -1.41,-4.84 -1.18,-7.96 0.24,-3.12 1.06,-6.48 2.46,-10.08 -2.81,2.66 -5.85,5.39 -9.13,8.2 -3.28,2.81 -6.64,5.35 -10.08,7.62 -3.43,2.26 -6.91,4.14 -10.42,5.62 -3.52,1.48 -6.83,2.23 -9.96,2.23 -4.37,0 -7.73,-1.49 -10.07,-4.45 -2.34,-2.97 -3.28,-6.99 -2.81,-12.07 0.06,-0.72 0.16,-1.45 0.29,-2.2 -1.73,1.53 -3.47,3 -5.21,4.43 -4.22,3.43 -8.4,6.44 -12.53,9.01 -4.14,2.58 -7.85,4.18 -11.13,4.81 -4.69,0.93 -8.51,0.62 -11.48,-0.94 -2.97,-1.56 -4.73,-4.1 -5.27,-7.61 -0.55,-3.52 0.23,-8.01 2.34,-13.47 2.11,-5.47 5.9,-11.72 11.36,-18.75 6.56,-8.27 11.36,-14.32 14.41,-18.15 3.05,-3.83 3.71,-6.13 1.99,-6.91 -1.41,-0.78 -4.33,0.31 -8.78,3.28 -4.46,2.96 -9.49,6.91 -15.11,11.83 -5.63,4.92 -11.29,10.38 -16.99,16.4 -5.7,6.01 -10.42,11.67 -14.17,16.98 -0.31,0.63 -0.63,1.02 -0.94,1.17l-6.09 8.67c-1.87,2.34 -4.14,4.26 -6.79,5.74 -2.66,1.48 -5.08,2.23 -7.27,2.23l-6.79 0c-2.19,0 -3.44,-0.79 -3.75,-2.35 -0.31,-1.56 0.39,-3.43 2.11,-5.62l5.25 -7.44c-0.46,0.37 -0.92,0.75 -1.38,1.12 -4.3,3.43 -8.48,6.44 -12.54,9.01 -4.06,2.58 -7.81,4.18 -11.24,4.81 -4.53,0.93 -8.04,0.7 -10.54,-0.71 -2.5,-1.4 -4.1,-3.59 -4.81,-6.55 -0.7,-2.97 -0.58,-6.45 0.35,-10.43 0.31,-1.29 0.69,-2.59 1.16,-3.9 -2.96,2.75 -5.96,5.33 -9,7.77 -4.3,3.43 -8.48,6.44 -12.54,9.01 -4.06,2.58 -7.81,4.18 -11.24,4.81 -4.53,0.93 -8.08,0.7 -10.66,-0.71 -2.58,-1.4 -4.22,-3.59 -4.92,-6.55 -0.7,-2.97 -0.55,-6.45 0.47,-10.43 0.32,-1.25 0.7,-2.51 1.15,-3.78 -2.9,2.7 -5.82,5.25 -8.76,7.65 -4.22,3.43 -8.4,6.44 -12.54,9.01 -4.14,2.58 -7.85,4.18 -11.13,4.81 -4.68,0.93 -8.51,0.62 -11.47,-0.94 -2.97,-1.56 -4.73,-4.1 -5.28,-7.61 -0.54,-3.52 0.24,-8.01 2.35,-13.47 2.11,-5.47 5.89,-11.72 11.36,-18.75 6.56,-8.27 11.36,-14.32 14.41,-18.15 3.04,-3.83 3.71,-6.13 1.99,-6.91 -1.41,-0.78 -4.34,0.31 -8.79,3.28 -4.45,2.96 -9.48,6.91 -15.11,11.83 -5.62,4.92 -11.28,10.38 -16.98,16.4 -5.7,6.01 -10.43,11.67 -14.17,16.98 -0.32,0.63 -0.63,1.02 -0.94,1.17l-6.09 8.67c-1.88,2.34 -4.14,4.26 -6.8,5.74 -2.65,1.48 -5.07,2.23 -7.26,2.23l-6.79 0c-2.19,0 -3.44,-0.79 -3.75,-2.35 -0.31,-1.56 0.39,-3.43 2.11,-5.62l47.08 -66.77c1.72,-2.34 3.91,-4.21 6.56,-5.62 2.66,-1.4 5.08,-2.11 7.27,-2.11l6.79 0c2.19,0 3.48,0.75 3.87,2.23 0.39,1.48 -0.28,3.32 -1.99,5.5l-8.44 11.95c5.94,-5 11.83,-9.25 17.69,-12.77 5.86,-3.51 11.52,-5.66 16.98,-6.44 4.06,-0.62 7.42,-0.47 10.08,0.47 2.65,0.94 4.06,2.93 4.21,5.97 0.16,3.05 -1.21,7.35 -4.1,12.89 -2.89,5.54 -7.84,12.69 -14.87,21.43 -3.59,4.22 -6.21,7.74 -7.85,10.55 -1.64,2.81 -2.73,5.03 -3.28,6.67 -0.55,1.64 -0.66,2.78 -0.35,3.4 0.31,0.62 0.78,1.02 1.4,1.17 1.57,0.47 4.18,-0.55 7.85,-3.04 3.67,-2.5 7.73,-5.78 12.18,-9.84 4.46,-4.06 8.94,-8.44 13.47,-13.12 4.53,-4.69 8.36,-8.98 11.48,-12.89l0.39 -0.43c2.95,-4.3 6.1,-8.88 9.45,-13.74 4.69,-6.79 9.45,-13.63 14.29,-20.5 4.84,-6.87 9.57,-13.59 14.18,-20.15 4.6,-6.55 8.74,-12.41 12.41,-17.56 3.67,-5.16 6.72,-9.41 9.14,-12.77 2.42,-3.36 3.86,-5.35 4.33,-5.98 1.87,-2.34 4.14,-4.25 6.8,-5.74 2.65,-1.48 5.07,-2.22 7.26,-2.22l6.79 0c2.19,0 3.44,0.78 3.75,2.34 0.31,1.56 -0.39,3.44 -2.11,5.62 -0.31,0.47 -2.34,3.32 -6.09,8.55 -3.75,5.24 -8.4,11.72 -13.94,19.45 -5.54,7.73 -11.59,16.24 -18.15,25.53 -6.56,9.3 -12.81,18.16 -18.75,26.59 -5.93,8.44 -11.16,15.93 -15.69,22.49 -4.53,6.56 -7.5,11.09 -8.9,13.59 -2.97,4.69 -4.65,8.08 -5.04,10.19 -0.39,2.11 0.04,3.32 1.29,3.63 1.56,0.47 4.22,-0.55 7.96,-3.04 3.75,-2.5 7.85,-5.78 12.3,-9.84 4.45,-4.06 8.94,-8.44 13.47,-13.12 4.53,-4.69 8.36,-8.98 11.48,-12.89l0.19 -0.23c2.34,-3.3 4.54,-6.35 6.61,-9.14 2.65,-3.59 4.45,-5.93 5.38,-7.03 1.72,-2.34 3.91,-4.21 6.56,-5.62 2.66,-1.4 5.08,-2.11 7.26,-2.11l6.8 0c2.18,0 3.47,0.75 3.86,2.23 0.39,1.48 -0.27,3.32 -1.99,5.5 -0.62,0.79 -2.11,2.66 -4.45,5.63 -2.34,2.96 -4.96,6.52 -7.85,10.66 -2.88,4.13 -5.89,8.43 -9.01,12.88 -3.13,4.45 -5.86,8.55 -8.21,12.3 -2.96,4.69 -4.6,8.08 -4.91,10.19 -0.32,2.11 0.15,3.32 1.4,3.63 1.56,0.47 4.18,-0.55 7.85,-3.04 3.67,-2.5 7.73,-5.78 12.18,-9.84 4.45,-4.06 8.94,-8.44 13.47,-13.12 4.53,-4.69 8.43,-8.98 11.71,-12.89 0.31,-0.38 0.62,-0.74 0.92,-1.08l10.8 -15.32c1.72,-2.34 3.9,-4.21 6.56,-5.62 2.65,-1.4 5.07,-2.11 7.26,-2.11l6.79 0c2.19,0 3.48,0.75 3.87,2.23 0.39,1.48 -0.27,3.32 -1.99,5.5l-8.44 11.95c5.94,-5 11.83,-9.25 17.69,-12.77 5.86,-3.51 11.52,-5.66 16.98,-6.44 4.07,-0.62 7.42,-0.47 10.08,0.47 2.65,0.94 4.06,2.93 4.21,5.97 0.16,3.05 -1.2,7.35 -4.09,12.89 -2.89,5.54 -7.85,12.69 -14.88,21.43 -3.59,4.22 -6.21,7.74 -7.85,10.55 -1.64,2.81 -2.73,5.03 -3.28,6.67 -0.54,1.64 -0.66,2.78 -0.35,3.4 0.31,0.62 0.78,1.02 1.41,1.17 1.56,0.47 4.17,-0.55 7.84,-3.04 3.67,-2.5 7.74,-5.78 12.19,-9.84 3.21,-2.93 6.44,-6.02 9.69,-9.27 3.36,-4.66 7.59,-9.54 12.68,-14.63zm-77.31 -54.58c0,3.59 -1.21,6.64 -3.63,9.13 -2.42,2.5 -5.43,3.75 -9.02,3.75 -3.59,0 -6.64,-1.25 -9.14,-3.75 -2.49,-2.49 -3.74,-5.54 -3.74,-9.13 0,-3.59 1.25,-6.6 3.74,-9.02 2.5,-2.42 5.55,-3.63 9.14,-3.63 3.59,0 6.6,1.21 9.02,3.63 2.42,2.42 3.63,5.43 3.63,9.02zm-237.54 74.73c2.96,-3.91 5.46,-7.73 7.49,-11.48 2.03,-3.75 3.52,-7.26 4.45,-10.54 0.94,-3.28 1.29,-6.13 1.06,-8.55 -0.24,-2.42 -1.06,-4.18 -2.46,-5.27 -1.56,-1.1 -3.56,-1.41 -5.98,-0.94 -2.42,0.47 -5.07,1.64 -7.96,3.51 -2.89,1.88 -5.94,4.3 -9.14,7.27 -3.2,2.96 -6.28,6.4 -9.25,10.3 -2.97,3.91 -5.43,7.73 -7.38,11.48 -1.95,3.75 -3.4,7.22 -4.34,10.43 -0.93,3.2 -1.28,6.01 -1.05,8.43 0.24,2.42 1.05,4.18 2.46,5.27 1.56,1.09 3.55,1.41 5.97,0.94 2.43,-0.47 5.08,-1.6 7.97,-3.4 2.89,-1.79 5.9,-4.18 9.02,-7.14 3.12,-2.97 6.17,-6.41 9.14,-10.31zm23.66 -41.23c2.49,2.81 3.9,6.36 4.21,10.66 0.32,4.29 -0.47,9.02 -2.34,14.17 -1.87,5.15 -4.69,10.46 -8.43,15.93 -3.75,5.47 -8.36,10.7 -13.82,15.7 -5.31,4.99 -10.82,9.17 -16.52,12.53 -5.7,3.36 -11.13,5.78 -16.28,7.26 -5.16,1.48 -9.92,1.99 -14.29,1.52 -4.38,-0.46 -7.81,-2.1 -10.31,-4.91 -2.66,-2.82 -4.1,-6.37 -4.33,-10.66 -0.24,-4.3 0.58,-9.02 2.46,-14.18 1.87,-5.15 4.64,-10.46 8.31,-15.93 3.67,-5.46 8.24,-10.7 13.71,-15.69 5.31,-5.16 10.81,-9.41 16.51,-12.77 5.7,-3.36 11.17,-5.78 16.4,-7.26 5.23,-1.49 10,-1.96 14.29,-1.41 4.3,0.55 7.77,2.23 10.43,5.04z"/>
 </g>
</svg>
